<mxfile host="65bd71144e">
    <diagram name="UML Diagram" id="0">
        <mxGraphModel dx="2610" dy="920" grid="1" gridSize="10" guides="1" tooltips="1" connect="1" arrows="1" fold="1" page="1" pageScale="1" pageWidth="827" pageHeight="1169" math="0" shadow="0">
            <root>
                <mxCell id="0"/>
                <mxCell id="1" parent="0"/>
                <mxCell id="56" style="edgeStyle=none;html=1;entryX=0.5;entryY=1;entryDx=0;entryDy=0;startArrow=none;startFill=0;endArrow=classic;endFill=1;" edge="1" parent="1" source="20" target="49">
                    <mxGeometry relative="1" as="geometry">
                        <Array as="points">
                            <mxPoint x="-290" y="560"/>
                        </Array>
                    </mxGeometry>
                </mxCell>
                <mxCell id="20" value="MoveLayerController" style="swimlane;fontStyle=0;childLayout=stackLayout;horizontal=1;startSize=26;fillColor=#fff2cc;horizontalStack=0;resizeParent=1;resizeParentMax=0;resizeLast=0;collapsible=1;marginBottom=0;html=1;strokeColor=#d6b656;" parent="1" vertex="1">
                    <mxGeometry x="140" y="520" width="140" height="78" as="geometry"/>
                </mxCell>
                <mxCell id="21" value="Vector Layer" style="text;strokeColor=none;fillColor=none;align=left;verticalAlign=top;spacingLeft=4;spacingRight=4;overflow=hidden;rotatable=0;points=[[0,0.5],[1,0.5]];portConstraint=eastwest;whiteSpace=wrap;html=1;" parent="20" vertex="1">
                    <mxGeometry y="26" width="140" height="26" as="geometry"/>
                </mxCell>
                <mxCell id="22" value="Temporal Controller" style="text;strokeColor=none;fillColor=none;align=left;verticalAlign=top;spacingLeft=4;spacingRight=4;overflow=hidden;rotatable=0;points=[[0,0.5],[1,0.5]];portConstraint=eastwest;whiteSpace=wrap;html=1;" parent="20" vertex="1">
                    <mxGeometry y="52" width="140" height="26" as="geometry"/>
                </mxCell>
                <mxCell id="57" style="edgeStyle=none;html=1;entryX=0.5;entryY=0;entryDx=0;entryDy=0;startArrow=none;startFill=0;endArrow=classic;endFill=1;" edge="1" parent="1" source="24" target="20">
                    <mxGeometry relative="1" as="geometry"/>
                </mxCell>
                <mxCell id="60" style="edgeStyle=none;html=1;entryX=-0.008;entryY=0.021;entryDx=0;entryDy=0;entryPerimeter=0;startArrow=none;startFill=0;endArrow=classic;endFill=1;" edge="1" parent="1" source="24" target="41">
                    <mxGeometry relative="1" as="geometry">
                        <mxPoint x="387.05999999999995" y="307.5060000000001" as="targetPoint"/>
                    </mxGeometry>
                </mxCell>
                <mxCell id="70" style="edgeStyle=none;html=1;entryX=0;entryY=0;entryDx=0;entryDy=0;startArrow=none;startFill=0;endArrow=classic;endFill=1;" edge="1" parent="1" source="24" target="36">
                    <mxGeometry relative="1" as="geometry"/>
                </mxCell>
                <mxCell id="24" value="MoveLayerHandler" style="swimlane;fontStyle=0;childLayout=stackLayout;horizontal=1;startSize=26;fillColor=#fff2cc;horizontalStack=0;resizeParent=1;resizeParentMax=0;resizeLast=0;collapsible=1;marginBottom=0;html=1;strokeColor=#d6b656;" parent="1" vertex="1">
                    <mxGeometry x="140" y="256" width="140" height="104" as="geometry"/>
                </mxCell>
                <mxCell id="25" value="Matrices" style="text;strokeColor=none;fillColor=none;align=left;verticalAlign=top;spacingLeft=4;spacingRight=4;overflow=hidden;rotatable=0;points=[[0,0.5],[1,0.5]];portConstraint=eastwest;whiteSpace=wrap;html=1;" parent="24" vertex="1">
                    <mxGeometry y="26" width="140" height="26" as="geometry"/>
                </mxCell>
                <mxCell id="26" value="On New Frame()" style="text;strokeColor=none;fillColor=none;align=left;verticalAlign=top;spacingLeft=4;spacingRight=4;overflow=hidden;rotatable=0;points=[[0,0.5],[1,0.5]];portConstraint=eastwest;whiteSpace=wrap;html=1;" parent="24" vertex="1">
                    <mxGeometry y="52" width="140" height="26" as="geometry"/>
                </mxCell>
                <mxCell id="27" value="setFPS()" style="text;strokeColor=none;fillColor=none;align=left;verticalAlign=top;spacingLeft=4;spacingRight=4;overflow=hidden;rotatable=0;points=[[0,0.5],[1,0.5]];portConstraint=eastwest;whiteSpace=wrap;html=1;" parent="24" vertex="1">
                    <mxGeometry y="78" width="140" height="26" as="geometry"/>
                </mxCell>
                <mxCell id="58" style="edgeStyle=none;html=1;entryX=0.004;entryY=0.019;entryDx=0;entryDy=0;entryPerimeter=0;startArrow=none;startFill=0;endArrow=classic;endFill=1;" edge="1" parent="1" source="32" target="26">
                    <mxGeometry relative="1" as="geometry"/>
                </mxCell>
                <mxCell id="32" value="Move" style="swimlane;fontStyle=0;childLayout=stackLayout;horizontal=1;startSize=26;fillColor=#fff2cc;horizontalStack=0;resizeParent=1;resizeParentMax=0;resizeLast=0;collapsible=1;marginBottom=0;html=1;strokeColor=#d6b656;" parent="1" vertex="1">
                    <mxGeometry x="-80" y="269" width="140" height="78" as="geometry"/>
                </mxCell>
                <mxCell id="33" value="Plugin code" style="text;strokeColor=none;fillColor=none;align=left;verticalAlign=top;spacingLeft=4;spacingRight=4;overflow=hidden;rotatable=0;points=[[0,0.5],[1,0.5]];portConstraint=eastwest;whiteSpace=wrap;html=1;" parent="32" vertex="1">
                    <mxGeometry y="26" width="140" height="26" as="geometry"/>
                </mxCell>
                <mxCell id="34" value="Item 2" style="text;strokeColor=none;fillColor=none;align=left;verticalAlign=top;spacingLeft=4;spacingRight=4;overflow=hidden;rotatable=0;points=[[0,0.5],[1,0.5]];portConstraint=eastwest;whiteSpace=wrap;html=1;" parent="32" vertex="1" visible="0">
                    <mxGeometry y="52" width="140" height="26" as="geometry"/>
                </mxCell>
                <mxCell id="35" value="Dock" style="text;strokeColor=none;fillColor=none;align=left;verticalAlign=top;spacingLeft=4;spacingRight=4;overflow=hidden;rotatable=0;points=[[0,0.5],[1,0.5]];portConstraint=eastwest;whiteSpace=wrap;html=1;" parent="32" vertex="1">
                    <mxGeometry y="52" width="140" height="26" as="geometry"/>
                </mxCell>
                <mxCell id="64" style="edgeStyle=none;html=1;entryX=0.5;entryY=1;entryDx=0;entryDy=0;startArrow=none;startFill=0;endArrow=classic;endFill=1;" edge="1" parent="1" source="36" target="46">
                    <mxGeometry relative="1" as="geometry">
                        <Array as="points">
                            <mxPoint x="970" y="562"/>
                        </Array>
                    </mxGeometry>
                </mxCell>
                <mxCell id="36" value="MoveDatabaseConnector" style="swimlane;fontStyle=0;childLayout=stackLayout;horizontal=1;startSize=26;fillColor=#fff2cc;horizontalStack=0;resizeParent=1;resizeParentMax=0;resizeLast=0;collapsible=1;marginBottom=0;html=1;strokeColor=#d6b656;" parent="1" vertex="1">
                    <mxGeometry x="390" y="510" width="140" height="104" as="geometry"/>
                </mxCell>
                <mxCell id="37" value="Object IDs" style="text;strokeColor=none;fillColor=none;align=left;verticalAlign=top;spacingLeft=4;spacingRight=4;overflow=hidden;rotatable=0;points=[[0,0.5],[1,0.5]];portConstraint=eastwest;whiteSpace=wrap;html=1;" parent="36" vertex="1">
                    <mxGeometry y="26" width="140" height="26" as="geometry"/>
                </mxCell>
                <mxCell id="38" value="Min Timestamp" style="text;strokeColor=none;fillColor=none;align=left;verticalAlign=top;spacingLeft=4;spacingRight=4;overflow=hidden;rotatable=0;points=[[0,0.5],[1,0.5]];portConstraint=eastwest;whiteSpace=wrap;html=1;" parent="36" vertex="1">
                    <mxGeometry y="52" width="140" height="26" as="geometry"/>
                </mxCell>
                <mxCell id="39" value="Max Timestamp" style="text;strokeColor=none;fillColor=none;align=left;verticalAlign=top;spacingLeft=4;spacingRight=4;overflow=hidden;rotatable=0;points=[[0,0.5],[1,0.5]];portConstraint=eastwest;whiteSpace=wrap;html=1;" parent="36" vertex="1">
                    <mxGeometry y="78" width="140" height="26" as="geometry"/>
                </mxCell>
                <mxCell id="61" style="edgeStyle=none;html=1;startArrow=none;startFill=0;endArrow=classic;endFill=1;entryX=0;entryY=0.25;entryDx=0;entryDy=0;dashed=1;dashPattern=1 1;strokeWidth=3;" edge="1" parent="1" source="40" target="44">
                    <mxGeometry relative="1" as="geometry">
                        <mxPoint x="655" y="310" as="targetPoint"/>
                    </mxGeometry>
                </mxCell>
                <mxCell id="40" value="MatrixGenerationTask" style="swimlane;fontStyle=0;childLayout=stackLayout;horizontal=1;startSize=26;fillColor=#fff2cc;horizontalStack=0;resizeParent=1;resizeParentMax=0;resizeLast=0;collapsible=1;marginBottom=0;html=1;strokeColor=#d6b656;" parent="1" vertex="1">
                    <mxGeometry x="400" y="282" width="140" height="52" as="geometry"/>
                </mxCell>
                <mxCell id="41" value="QgisTask run" style="text;strokeColor=none;fillColor=none;align=left;verticalAlign=top;spacingLeft=4;spacingRight=4;overflow=hidden;rotatable=0;points=[[0,0.5],[1,0.5]];portConstraint=eastwest;whiteSpace=wrap;html=1;" parent="40" vertex="1">
                    <mxGeometry y="26" width="140" height="26" as="geometry"/>
                </mxCell>
                <mxCell id="62" style="edgeStyle=none;html=1;entryX=0;entryY=0.5;entryDx=0;entryDy=0;startArrow=none;startFill=0;endArrow=classic;endFill=1;" edge="1" parent="1" source="44" target="46">
                    <mxGeometry relative="1" as="geometry"/>
                </mxCell>
                <mxCell id="44" value="create_matrix" style="swimlane;fontStyle=0;childLayout=stackLayout;horizontal=1;startSize=26;fillColor=#f8cecc;horizontalStack=0;resizeParent=1;resizeParentMax=0;resizeLast=0;collapsible=1;marginBottom=0;html=1;strokeColor=#b85450;" parent="1" vertex="1">
                    <mxGeometry x="640" y="295" width="160" height="52" as="geometry"/>
                </mxCell>
                <mxCell id="45" value="Method rn in a new process" style="text;strokeColor=none;fillColor=none;align=left;verticalAlign=top;spacingLeft=4;spacingRight=4;overflow=hidden;rotatable=0;points=[[0,0.5],[1,0.5]];portConstraint=eastwest;whiteSpace=wrap;html=1;" parent="44" vertex="1">
                    <mxGeometry y="26" width="160" height="26" as="geometry"/>
                </mxCell>
                <mxCell id="46" value="" style="shape=datastore;whiteSpace=wrap;html=1;" vertex="1" parent="1">
                    <mxGeometry x="910" y="263" width="120" height="116" as="geometry"/>
                </mxCell>
                <mxCell id="59" style="edgeStyle=entityRelationEdgeStyle;html=1;startArrow=none;endArrow=classic;segment=10;curved=1;sourcePerimeterSpacing=0;targetPerimeterSpacing=0;entryX=0;entryY=0.5;entryDx=0;entryDy=0;endFill=1;" edge="1" parent="1" source="49" target="34" visible="0">
                    <mxGeometry relative="1" as="geometry"/>
                </mxCell>
                <mxCell id="69" style="edgeStyle=entityRelationEdgeStyle;html=1;startArrow=none;endArrow=classic;segment=10;curved=1;sourcePerimeterSpacing=0;targetPerimeterSpacing=0;entryX=0;entryY=0.5;entryDx=0;entryDy=0;endFill=1;" edge="1" parent="1" source="49" target="33">
                    <mxGeometry relative="1" as="geometry"/>
                </mxCell>
                <mxCell id="49" value="&lt;font size=&quot;1&quot; color=&quot;#589632&quot; style=&quot;&quot; data-font-src=&quot;https://fontlibrary.org/face/trueno&quot; face=&quot;Trueno&quot;&gt;&lt;b style=&quot;font-size: 50px;&quot;&gt;QGIS&lt;/b&gt;&lt;/font&gt;" style="ellipse;whiteSpace=wrap;html=1;align=center;newEdgeStyle={&quot;edgeStyle&quot;:&quot;entityRelationEdgeStyle&quot;,&quot;startArrow&quot;:&quot;none&quot;,&quot;endArrow&quot;:&quot;none&quot;,&quot;segment&quot;:10,&quot;curved&quot;:1,&quot;sourcePerimeterSpacing&quot;:0,&quot;targetPerimeterSpacing&quot;:0};treeFolding=1;treeMoving=1;" vertex="1" collapsed="1" parent="1">
                    <mxGeometry x="-370" y="236.5" width="160" height="143" as="geometry"/>
                </mxCell>
                <mxCell id="65" value="" style="shape=image;verticalLabelPosition=bottom;labelBackgroundColor=default;verticalAlign=top;aspect=fixed;imageAspect=0;image=data:image/png,iVBORw0KGgoAAAANSUhEUgAAAagAAAHDCAYAAABxgY5ZAAAAAXNSR0IArs4c6QAAIABJREFUeAHsnQmYHEd1+AUBwpFACEk4QhJjT48MBAghIfCHACEQEhISbBDI0yMf+MI28YUBG+ML35dkybYky5YPSZZk2bKtw9axuq/VSitptdpDe2lXe9873dN3Vc/7583OSLMzPXfP7Mzu2+/bb2a66/xVdb2uqlfvzZhBf0SACBABIkAEiAARIAJEgAgQASJABIgAESACRIAIEAEiQASIABEgAkSACBABIkAEiAARIAJEgAgQASJABIgAESACRIAIEAEiQASIABEgAkSACBABIkAEiAARIAJEgAgQASJABIgAESACRIAIEAEiQASIABEgAkSACBABIkAEiAARIAJEgAgQASJABIgAESACRIAIEAEiQASIABEgAgUkAADvBoCvAMDNim6tkDTrmGqwfpPZKkT+QgC2YXFZ0a0OWbP2GhabCwA+ADingEWjpIkAESACRGC6EQCADwHAnKBu7WDcNvpGFWnz0U5j0aY6uOPlQ3DNot3gn7cNfvjApvD/jx7aDJfO3wE3PrcPHnj1CKzY3WwfbhmUVYNpmsH7dYM/BwD/DwDeMd1YUn2JABEgAkTABQIA8Bnd5C9azNZqTg3L89YfB3HuWUEUFUjZfF7/7F5YsauZDwZ0WTNYv23DzQDwRy4Ul5IgAkSACBCBqU4AALyKxjYouqWu2tPMLp2//czsKBthlC7sr148AFVNA4rJuGIydg8AvG+qs6X6EQEiQASIQA4EUEBoFl+gm0xbsbOJ/fTRrQURTPGC6+qFu+HgyX5VZ/YQB5iVQ9EpChEgAkSACExVAgDwVc3kPQca+9SL5xVmxhQvmOJ/37qsEgYCuqIa7FUA+OBUZU31IgJEgAgQgQwJWLZ9g2owFRUa4oVGsX//5JGtsLWmS9cs3g8AX8iwChSMCBABIkAEphIBAPgDzbSWdw8rytULd026cIoVho++fiykmzwIAN+aSsypLkSACBABIpCGAAC8xzD5uoau0eDsIu01xQqgTL7fvqIKNJPh+aofp6kO3SYCRIAIEIGpQAAA3qkabP3RtiF11sNbSmrmFC+48CwVLj9ygB9NBfZUByJABIgAEUhBQDPY4009Y0qpC6eosIoRUj9IUS26RQSIABEgAuVMAAC+K2mmOifG8kNUECT7vOCBTXDrsoOwck+LfaJjRBqWDclkthk1bWSHQnxI0qUjrUPSa/vb+G9eqgSMkyy9XK7f8sIBMCyuAMA/ljN/KjsRIAJEgAg4EIiccxq8a+WhjISH7/EKWL6ziY8GjaBqWB2GxR4DgAsA4NMA8CfRLADgDwHgc7hXxGz7PrTBJ2mWsv5Qu3n5kzszyisToXXfmmoUUqMA8DfRvOmTCBABIkAEpgABxuw7q5oH1HTCAG3pPV/RyPHArmqw1wDgS9lWH4WYwezHDYurayvbTBR26fLN5H6kXCdRKGZbJgpPBIgAESACJUgAAN5rMlu67pk9KQUFGn7tGgoGVd3ajyaP8q0KAPylZvKVisHUe1YfTpl3JgIKwxxqGVB1gz+bb9koPhEgAkSACJQAAQC4+ETHiJxKCNy16hDoJldtG37hdpEB4Bu6xYeX7TjJUpUhk3s4GxtVTNyP+i+3y0npEQEiQASIQJEJoF+mx96oSTqDeei1oyHD4hK6wShU0QDgE7rJ296sajcyEUSpwuAZKRR4ZBKpUK1F6RIBIkAEikAA92sYt83Zjzkbf/3l8/txsMcZyd8VujgA8GHdZI2r9rZYqQRQJvcqjnfpqsWXFrrMlD4RIAJEgAgUiADOirpHlIDToI9noUZkQ+EAFxYo+4RkAeCjusUHHn+zJuRUpkyvoW8qPMSLGoQJmdAFIkAEiAARKH0CAHDFrroexWngxz0hxWBbil0LAPhbw+LBm5fuT7rs6FTe+GvPbmmwVd3aW+zyU35EgAgQASLgAgHG7AdW7m5OmK1c+OBmkHULl/Y+60I2WSfBAWYPBnQlH1uAqBI/LBloVPbfsi4ARSACRIAIEIHJJaBbfNFzFQ0JM5U7Xj4EQd06OZml00xrdUVNlxY/M8rmN7oJ0QyrDW0MTmZdKG8iQASIABHIkoBu8eee2VKfIKBW7mm2DYs9nmVyrgZHLTzD4mNoyigboRQf9vRQUCa1c1ebhhIjAkSACBSeALPtR5btbEoQAAeb+nFQ9xW+BKlzAIBLOwbkYD72+x5/swYU3TqUOie6SwSIABEgAiVFAABu2HTkdMLZo7rTo2MA8P3JLiwAvEM1rJZ711QnCNH4mVKy37gXhUZwyQvvZLcm5U8EiAARyIIAAHyvqXssQc28tmMkAAAl4cICAH7a2hdIaekimXCKXkfDtopuvZIFGgpKBIgAESACk0kAAD5iMm7gLCM6mOPn1mNdGgBcN5lli+aN7ufxbNRNeaidowsRk3EdAN4fTZc+iQARIAJEoMQJBHWr9bZlBycIqKffrsODrq+XStENkz36emVbXhYm6k+PormmWaVSJyoHESACRIAIpCHAbPv2rTVdeuwMCn01mYzjGaL3pIlelNtoamk0aAZjy5jt96feOgGKbr5VlAJTJkSACBABIpA/AQD4pGFxDc0DxQ76tR3DKKCuyj8Hd1LQDN6LtgFjy5jNd1rmc6cdKBUiQASIQFEJoALB6r0tE9xdoHt2zeJDAPDHRS1MkswMiz/90o6mBKsX2Qip5t4AKn9MunZikirSZSJABIgAEYgnAADnoIfbK5+a6IZ9Z223ppv85fjwyX4DwF8UymoDAIhVzQN5afOt2dfKTWY/lKz8dJ0IEAEiQARKkIDJ2F0NXaPKBQ+e1ehDNxydQ7JiMvv+dEVGaw3cDplo/UHW2Sbbtu8EgC+mi5fpfXQVPxo08xJQ6Lk3qFlHMs2TwhEBIkAEiEAJEEB1bs1kVa/ub52gLXfp/O1welBWVINtAoBz44sKAB8yTPZwULNUNEv080W7Aa039I2qjNn2vfHhc/2N5WPcNtBrbjbLerFhMS7jIVQ3f1eu5aB4RIAIEAEiMAkEcIlOZ7xn8eZ6Hjuwz3pkC6za02LpJtODutWo6NZqxeTLZc2qNJmt76rt0X62YMcZwXH/miMh3eIj6ITQzWqohtV5/ZK9Z/KJLWOm3wcDOqqbF9wBo5v1prSIABEgAkRgxowZOEvCg7Ho2TbeBh4e6L19eRU8ufEELHy7Du5bUw3+OO2/BRtO2IbF0Zbfl9wGKqtW3a1xZ7YyFUzRcLiPVQp2Bt1mQ+kRASJABKYFAfRsq5ns+MnusWCmM5YrntoJ++p7Vc3kXQDgLQQoWbP23ftK7nb5UEi9sq/VZrb9+0KUj9IkAkSACOREAADejQZD0UI2ANylG3yRrJmvy5q1R1bNuoBqHpc161BAMXYFDfYqDmIAcBkAfKNUVK1zqniOkXDPx7bhepNxqbF7VF6wsRauXbznzPIazqauXrgLHlp7NCyYUAtQZ/YDAPBHOWaZNpqssfVz19WcKUN0VpTN5xPrj4Osmm+mzYwCEAEiQAQKRQAA3gcAP1RN/lJQt5q5bVu4/7C/sS/4yt7WEDrqm7+hFu5/9QjgstHtK6rgrpWH4MHXjoaXsFbva7X31PUqHYPyGOMhUzV4NwouAJgNAH9aqHKXWrpoTQINtgY1tk4zGJ6LAovZBrdDTDPZcFC3dtm2fSMA/Fmhyy7p5pZHXj+Wl4DCNpZUs7rQZaX0iQARIAITCADABwDgJ2jSxuK23tQzJj1X0RD69UuV8NNHt+Y8sKEL9Ouf3Rvedzl2aljCAVoxrGMc4Ap0rDehENPgB2ruTYYZJBQsKGCymTHFh8V2VHSrcxo0E1WRCBCBUiCA2meGyR5C+3F1p0ck3MRH0zbxg5Nbv2c9vCWsIFDdMhhELTa0xAAAnykFFlO5DGjYNh9zR9j+ly3YAYbFpanMiepGBIhACRAAgE+pFn/eZFxDg6d4BsctIZRpOhfP2w4v72pmqmFpim5VAMDflwCaKVkEzeBDuO+Vads4hUObgxaz9SkJiCpFBIjA5BMAgPeazL4PN+bxYOklT2zPa9ByGsiyvfaTR7bCs1sabNVgqMm2EgA+Pvmkpk4JcCnV4raJy63Ztk1seJz92qEQnzpkqCZEgAiUDAEA+DfN5D2HWwZUdAsRO/iUwne0VvBmVbtpMluxbbgO3ZaXDLwyLggAfLN9QErw/pttm6P2YSgEJKDKuC9Q0YlAyRFArTzNtFaNKoby+zzPwmQ7qOUS/rpn9kDHgKRoBtsLAH9ZckDLrEA2wC1vHzlt5NIWsXFQWYZx2yqz6lNxiQARKFUCuNekm6xpX0Ovlo82XuxAVYzv+LaOJoJwUx4A/qVU+ZZDuYK6uWXuuuN5z5hpD6ocWpvKSATKhAAA/LvJbOm5rQ0T7MMVQ8C4lccdL1eBZjKV2fbNZYK9pIqJh39RW9LvgmbmVU/vwrYYLqkKUmGIABEoPwKc88sUnam35Wl/zS1Bk086ODD2jqiKZvEnaV8qu74IABfVtg/n5Woj2nZocR0PbmdXAgpNBIgAEYghwDm/PKhbKu7lRAeXcv9Ew6qn+iVFN/lyNCUUU136moJAULd2zFuf//Ie9p9711QD2vRLkR3dIgJEgAgkJ2DbcJWkWeo1i4t/rqnQQnD2o1uhsXsMhdSy5AToTpRA2Nsv49pFj+XuByq2TZdsqQfV4kuj6dMnESACRCBjAmjrLqCa6jWTcOg2diAr5Hf0VNsxICvo6C9jMNM0oGbyFfFOFPNpm7eqTxsAQHuB07Q/UbWJQM4E0Nq4bnHlxuf2TZllvWSDKVqgGJJ0hXO4MmdgUzxixDeVFu9zKhnTTK7Xd44GAOAHUxwdVY8IEIFkBADgb9ACNrPhHlkz1+Gav6xbtZJqHpVUc7Nq8hdsG9A1w6zoGSEA+Ihm8f7H3qgJZTLQTIUw6L5CN7kKAP+QjOV0vq6Z/NVX9k10QZ9vu6M2JQB8cjpzpboTgWlHAAD+Ubf4M5rB+9EuXXXroPTq/jaOm9t4sPa3yw8Cqls/+sYxWLy5Hs8HhdAyuGYyTbf4kKKz4cMtgxaeHcp3ECqn+A+vPRrSLD44nVx4ZPJwAMB/jqmm4tbeE/YJtDxiMi5nkj+FIQJEoMwJoCYaqgBrBm8bkY3g6j0t7H+X7M1awKAyxDOb63FfBlSDhd6q7gA3B6ZSF1hoIQFnC2XeHVwrPs6mDYuPont5N9sOfUnJmrXbtYJSQkSACJQmAQD4jm7yzta+gHzP6sOuDSS4/1R5sj+kGSz0/LZGuOCBTa6l7eZg52ZaaB1jRDYUnDWUZmsXt1Sqwd5af6g9b7NG8W2EFu8B4JfFrQ3lRgSIQNEIoFVp1WCvo008PFMSPwi49RudDHaPKKG+UTV009L9BcvHrfLmm87vVlQBLnUCwPuL1pglmBEAfG00aAbR6ni+TOPjj8iGjIo4JVhtKhIRIAL5EkBfR5rJ+7Yc7dRnPeL+ABI/oFzw4GZYsqUhpFs8tGDjCdcHrPj8Jvt35cl+lTH7rnzbqVzj45Kxali1T2484bqiDB741i0+QlY8yrV3ULmJQAoCaBMPVcAfff2Y64NHOsHwm5cq0TwNbDzUUVJCCpcf0QX529Wnob5zFHpGFLQUAVXNA+E9tUvnZ+en6uqFuwHddKCH4BRNMSVvoQt5zWSvHm8fVgqxrLtydwvXDb54SsKjShGB6UyAA1yAjvhQUKQTJoW6f+VTO6FvTAvta+wruoB0qhPaB2zrQyPlyf8Mi8Or+1shm+UqVJgwLPuJ6dTfAOCruskaj7QNqoWyVt83quDy3tenE1eqKxGY8gQA4Ns4c7r5+cnfB7r4ie0wGjRCaw+cmjRBicJq4dt1wO1QcskUd6exawyw7E6CLv4aCmKTcZxF/fGU71wzZsxgzL4NbS7OX18bKsTMCfmigVjNYH20vDcdehTVcdoQQD9MhsVlt9V94wflbH6jCSRFt2DhprqMBvxs0s4k7MNrj0LmoumspDrZPZbxTOpAYz+65rhlKne08SU9a1XXUDBYaM/I24536Saz75jKPKluRGBaEcABBJddStEPEy41GhYPoQuLTISKW2FwINUtflbqxHyz+9pBX/o7CN74LyBf/gUI3vBN0J75DdidTWdCrT3QllF5UYNRNVjXVO1wAPAJzWRHD7cMFGxJL9rmaCbJsLgGAB+fqjypXkRg2hEwGfv9sVNDSvRBL7XPN6va7dODQbuY5dp8tPOMsIn9Yu16FaRLPgOSKCT+zzkfzE0vhIObjMPPFuzISEjhwWcA+NJU63gA8COL2YHVe1vMQi3pxfaJlbubmaJbq6YaR6oPEZi2BABAMCyuFnrpJXYgyfb7Tx7ZGt6Pem5rQ0YDfrbpx4f/8cNbcFYTK5fC39mxnSD5ZyYKpjhhZe1bFw6/tKIxo/K+sreFmRZfAQDvnAodEc/Paaa1alg2lF+9eCAjBvFtkO1vVLiI2N47fyowpDoQASIwY8YM1WBvvLyrmWU7IBQ7/F2rDuF+VOhHDxbeft/tK6oShBPYHII3fTutcMKZlXztVwFMHY62DWU0OKOKemufFFQNqwHtHJZrx0TFBA5wCZou2lbTpaGrkWL1kxW7mpiisQ3lyo7KTQSIQBwBADhfNVhRB5J8Bqy2Psl+82Dhtfrmb6hNEFD8ZHVGwim69MeObIPuYSXjARqXwBZsqA0FdUvTxr3wfiKuuUr6JwB8WTdZbcegLBdr1hTtS3PmbQPdZLj35ClpSFQ4IkAEMiegG3zRq/taS372FB2I7ltTDQHFLPhe1DNb6hMElLltZVYCyli3CJclMxZQ0Tr6Hq8AtE1nMlvTDf4cAPx15i1a/JB43kjR2R5JM1UUsMXYa4qyin5uPtqpI6vi155yJAJEoCAEAOC9JuPBK4usHRcdVHL5vPDBzWhlInTvK4WzC4jlQkvY8X+5CCg83JtLPTEOnqV64+ApE7XSFN1ajQdcC9IRckgUAN4NeKDbZEfQ8O3Ct+tCuG+Xa13ziYezNcPiYwDw4RyqQlGIABEoRQJozqitXwrkMzhMRty3q0/z4+0jBZ1F/eKZvfHyCXhDVVYzKHZ4K+yo7c570PbP2wYvbT9pDwV03KPqtG37FlTdnow+FfGCvBD9LLX2S9Ljb9YAvjRMRj/APNGfWM+IGuQAvsngQXkSASJQIAK4vLd8V1NBB/pCDFxoD09STV6ItGPTRFt7E/44D593iu4xpfqUf/5lCBka4EHf2DTz/Y4ml/bU9aq6xfWgbjUz274XPfSi4dVCdBO0tg4A/6Wa/Hnd4oMB1VRwSfjni3a7Wq9cubxeecpUDLatEHWnNIkAEZhEAkHdakOzMLkODpMVD9WJGbdhztxtBS37ok11E+QT/mDVFSD5vWlnUtbu16B/TIVCLXvhrAUtfrxZ1W4OBHSJcdsIatZxw+JPAoAPAP4JAD6aafcCgHfhXhcA/DMAXKPo1kpFt04xbltNPWPSi9ub7OtzcE5ZyD6CmpaRpb0/z7SeFI4IEIEyIIB7CNy2LTxfVMhBpFBp942qNtrIK1T6mC4uH7X1JxqINStWgHTx+c5Cyj8TjHWLw+aRCuk/K77eqFhxx8uHYNnOptCh5gG5azgY0E2ucTtkqQbrlzWzVdatWlkzD6KXWUkzDwd1qw6v6xYftkMhLuuW0jEoj+2o7VFROOPLS6EEbHz5s/192YIduBep4jJ1GTxuVEQiQASyIQAAnx6WdDnbgaFUwle3DloVNV0FFVBYVzTmipp48X9o0khb9CuQf/G1sKDCc0/aUzcCP3UiHHTlnpaCly2TtsBzSNcs3g2/fH5/eMaF3pDvf/VI2G3IrcsOhq+jCSkUxpmkVwph0Fp8e7+kmMy+J5s+T2GJABEoEwIA8K22fmmsFAacXMrwRlW7XXd6tCj7Z6jl2D6A3hvS/6HV82eLZO0iF27lHgdV2Pc29GnoJp6slZfJYEPFJAKZEACAPwOArwCAyEOhV4+eGlLLdcBatrMJ2gdlq1jlx6UuNFs0LOuOUgoFU2VTP6D2X7HKNB3zWX+o3VRNhtPUD2TS5ykMESACJUgAAN4HAP9q23CnrFvbNYuPGhbXO4fkwIHGvmD3sBI62NRvlusgh7OUnlG16OXHN3g8d/P0Wydg1Z6WsNB6aO1RQCva5cqyXMqNpow0k5+i804lOOBQkYhAOgIA8FnbhtuDmlXNuG22D8iBN6tOWXjo9OqFE11VbK/thiOtQ0Uf4N0aDFfsaoKuYaVsy+8Wh+mSzpr9rZZmcjQvPynnv9I9e3SfCBABBwIolExmP4D+hCTNUtCFOGqPXfRYRco3+nVV7dDYNVa0JTK3B9I3q9p5S59UtuV3m8dUTQ9nrBsPdxi6ydDRFqmTO4wBdIkIlBQBdA/OAa4M6lZ9ULNUPAuDy07Z2EB7YVsjnsAvGxt88QPwrhM9Zu3pkbItf3x96PemhBcqPOu1s7ZHU01WAwB/UlIPIRWGCBCBiQTwIKVm8actZqtHWgeDaI8uVzMzv36xEixuT4phTzcG444B2dxY3ZEwqLmRNqWRKCyKzQQPYx9qGdA0k+0nhYiJ4wD9IgIlRQDPLKkGW2swrq2rOmW64VgQz70YFgc30ir24IUzRZPx0P1rjpCAemDyhYnb7Y99smtIUTSTrQGAP8zlYeQAFwPA93KJS3GIABHIgAAA/JVm8pWaybTlO5s5WgtwczAYVQyGxj7dTLMYaeHBU93iITSiWoz8KI/iCcHfvFQZthBhMvu2DB4RxyCM2beHQhAAgJmOAegiESACuRPAJQ3NYHPRzcJrB1ottwVTdMCtOTVs767rLTtFgxe2nwwFVLPsyh3lTp/OAg99SekWRwu938/l6cGDuxaz54dCIQ4A384lDYpDBIhACgIA8EPN4kN7G3q1S+fvKOgMAdXPNYOFysnMDQ7up/plc3d9b8GtmZMgcRYkbnPBFzDs7xE18s+keDyS3kJjt5ElQeAcrkwakG4QASKQPQG0PK0YrGJgTFPQSrPbg4BTeriXI2um/cCr5bOXg2aHTGaHblq6ryiMnLjRNfcE169fqoQRxVB1k7+Erj2yf3JmzECtVs1g29HEh2HZ83JJg+IQASKQhAAH+JFh8cBrB9rMYs9m9jf2243dY2Wjrr356GlrNGjQAd0yV47Afr5qTzMzLC5zgAuTPBppLwPA+brJO1A4Kbr1CgC8M20kCkAEiEB6AmiOSDOtVUOSrqDa92S8mc+Ztw10k4fQsvVk5J9NnqgUYVg8tGBDbcmXNZt6Tbew2Ne7hxVFM9g+APjL9E+KcwgO8GP0g4XCSbf4IjIe68yJrhKBrAkAwLm6yZpx7R3PfEzmIHW4ZYA39wZYNgd9J6O8Gw+3W7JmWRdMoovxyaj3VMlTnLsNttZ06ehkkAOIWT80kQi432RY9hO2HQqFhROz7881LYpHBIhAHAF0smYyW1qypaEkNvpnP1YBisHsBRtPhEp1MEQX4wbjocfeKD+1+FJlWqxy4QsFaugpOlNVky/NxyoEAJyjmezQiKxbFrOZwexb4h4v+kkEiECuBGwbrlYNppbakhpaB9dMFkIHfcUauDLNB61lNHUHrI6BIO09ldHeE87IH3ztKPSPaUHVYMcA4Mu5Pje4fGfb8AvD4kptx4gd9hbM+c9yTY/iEQEiEEMAHzCD2Q+NyIZyzaLdJScEUFjUdY2yjkGZF1tRI52g2nCogyk64xfP216S3NKVfzrev3PlITg9KAdVw2rJ9VxT9PHB5XDNZFWnBqTgjuM9HJcIAeDr0fv0SQSIQB4EUDipJn8R3VRf/ETpDrI/fmgzujfnlSf7Wans8yx8u87WTRa6a9XhkhBOty6rhMneMyxVgYcvNo++cQw6BmVZM1g3APw0H8UF3GuybPsmnDWt2tPC0TZfxFlhzooVeTzGFJUITD0CEeH0UktvQJn92OQqQ2QysF26YAfImmVX1HRPupCKCqdnttSXzN7Y9tpuGx0l3vgcncOK9ic8aPvi9pM8oFmKYlhHAOB/8lX3BoD/0gyrs75zNGwUuW9UVTTTejlX23xTb2ShGhGBPAmgcNJNvqxchFN0wLlm0Z6wkDrYNMDQ1Xn0erE+ce9izb5Wplsclu9osouVbyb54CzhSNugxrjNn9vawEtd8zGTOuUSBmfYuIy3r75XNRnXVYO9DgBfyvORwUO3X1R1VjUQ0MKC6dmtDbikp9o2XJNv2hSfCBCBGAKawead6pfKYuYUP0hd8sR2GJF13jEg86uenuiNNz6sm79nP7oV9jX2cTQGu2Rz6cycYuuIQrumfUhFFefajmHlihJULIktr5vfb3h2H7xe2WahH7KgHt5fuhEA/iKm2+f0FQC8mslfQQWiRZvqbdTabOweVVTDOg4AQk6JUiQiQAScCVi2fcNAQFfwIKybA0Qx08I9qZr2YY4HeZ9660TBfUc99NpRGFMM1NCyb1s2OQeXM+U76+EtcLx9OCykLG4bS7bU29nu22EameY3WeFmPbIFfv9KNWw52qkHVFPRLT5oWGweAPytc8/P7ioAfEXRzS1osX/13nHDyAvfrrd1i6to0RwA/iC7FCk0ESACKQmg6RZ8w0S7cZM1sLiZ71NvnUAzMnb7gMxvK4DFCXwrb+waM1SD2TWnhgw80Olm+QuVFi737W/s07gdGjEs3tLWLwWvf3ZvxmWv7RgJjQQNa39jX3Dh23Xwi2f2ZuUVuRD1wv2ku1YdglV7W+z6ztEACt+gZtbYtn0rAHw2ZcfP8CYufeMek2JYx0YVQ1mypSGEiic3Ld0Pzb2BoG6yBgDIyWhshkWgYERgehLABwtdBty8dH/GA1UhBhq308Rlrd11PSE8K9XWL3G0hI5v17nmg3s3d686DPWdI2hZwB4OGvodKw7lnF6u5cg3Hs6a3j5y2tBM3sps+z60LVdR06Vnoq2JAu6htUehoWtUDgGMW0WvncItAAAgAElEQVQwmd7cExjDNFFoodZgIdytYN7XPbMHcNa6fGdTaG9DX3AgoMloOiioWTWGxR6PKDt82K0nGQDOM5l9P87CuoaCMmr84Rk3tNq/s7ZbMywu2bZ9Lc2a3CJO6RCBGAIA8EHN5F3zN9SWjNZZvgNwfPyfPLIVthzrDI0pBm5eQ+XJAYYzrGsX70nrft4/dxvcs/owrD/UYY8EjRC6+ugcUnR0XR+fT7n9XrGr2dItPgwA39Us/rRuce2lHU08UyF+9cLd8EbVKROXugDABoAO3WK7g7p1EoXG/y13mUOSLjV1B8b2NfQFX688xZftaILnKhoABdljb9YAvjRE/59+60T4+jOb62H13tZQxbFO7dipIal9UB4bU0yZ2yGmGqxf1qw9BrNxye5yAPh7VO2O6dJ5f8VnAtNGoacaTHur+rSBMyVsX2SzYlcTKsNohmXPB4AP5Z0hJUAEiIAzAdVgm3GtvtwG11zL++sXD8Ceuh7oH1MZzqy4HYJh2bBP9Uu8oWuUH20bYs09Ad49rNiKYYHFbBgMaPah5gFYW3kqhIZfb35+6sw0H3rtKDrcw30pH27sY39QDKYurWi0UbBnwhlnqveuqYbdJ3pUHLhRQNk2/BYA/hGX2ADg3wDgEgD4LWP2o7rFFyu6tULRzA1jilERUIytqsHekjTzFUW3lusWX2oD3AMA1wHABQDwNSwbALzHuRfnfxUVHgDgJlmzKnGJ8GjrUBBduuCsDRmgIgwykcJq6WwLzqzyz5VSIAJEICkBALiqaygYnAy17EwGvmKEmTN3G+BAtLSiEVbuaYE3D56Cl3acRDts4eWkeJXs1XtaeVCz7Knkuh3300YVU4koErwLAL4QFlQ6U5/fdpJns1yHy193vHwINh/t1CXNUjWLDwc19gb2NQD4dD6HYJN25BxuAMAn/0+h8ULdsJ7TDN4v65ay/Xi3hsuHFz1WcUYwYzuv3tuCLzOaarBNAPAPOWRHUYgAEciGAL4B4ml33OQuhiCYKnmgwKps6uf9Yyq/sIxszKXjjyaZUP1cM1kNAPw19iUA+LxisPWGxfVtNd1aLgd9r1m8G57cWAt76nuV0aARNBkPypq1kzH7IQC4CM8QAcB7s+m72YTFvSEA+Bucxdm2fYesWTvQjxku3dW2D0sv7WiyUUDH88Hl343VHbhMiV5z8bCtN5t8KSwRIAI5EsCHVjWsmqUVjSVhmTx+cCj137j01dIbsLuHFf7jh3JXuii1eqLwfWn7yahDvgui3QsAPmYy+27dsofb+gLy42/WQK7q5j9bsAMeXnsUZ6t2VfOAPDCmBhi3Gc5iJNU8ENTM1yxmo7LDTQDgx/0xPEwb8/95tHMX+f8c2rdDu3kRYXc1ANyu6NYySTWrcL8K961kzVJaegOBN6tOWbjflcy4MM6cntx4Atr6JclkdiAyoyQTRdGOQJ9EoBgE0MIyqsbGL1+V2oBZyuVBFeOGrjE+END4T/LQDCzFOm6s7rBNbvfFL8dFZiM/DOpWJc6q9jX0Kbg8mqlSRbK64j4PzlhQ8WTBxlpARQr0o1XZNBBWsOgZUaTuESXQO6qMokBDNW/8HwzogfYBeaz+9EjgYFO/vK2mS1t7oI0t2lQXVmzBNNMtX2PeaF1ib8S6hKKzrQDwA7cVL4rxXFMeRKDsCeAJesPiweuX0NJesgEz0+s4izh6aogPyzr3zT27b5Fp/FIMt2Zfq6mZvAcAPpWqs+Osyga4VtatwybjxsGT/QrOTsphb+7S+dvDy46HWwdlLLtiWPW2bd8MAH+eqs50jwgQgQIT0Ey+el3VKfJR5NL+Eb6B723o40Hdsn+3oiphL6MUhZBTmXDZcveJHk03WWO2ZoBwYAeAK2Xd2st4SO8fU6VNR04bKLDQ/JRTfsW8dvmTO8Nnt3CJr3MoKFncVhWdvQUAF5NQKvCAQ8kTgUwJ4Do+alaVg4XyYg5gbuS1eHNdSDcZrK1sm/QBOdv6oCJDzwha3uavAcAHMu1PTuFwaSyiXn5LULd2oTAYDRrykdYh6bX9bRzPPqGyRa57WKnqhv0a00ZNvGU7m0JH24akoG6h+SH83GXbcCcAfJOW75xajq4RgUkmoOjW7sWb6kvK0naqAafc7qElDjzMe6pf5pc8saPkBRXuQYZtyJmsYJa30YVFRL18FrPhHllnmxTd6uR2yApoVrBzKDh2vH0ksKO2W12zv9VGL8l4iHfuuomHeHE29tgbNeF7uEeFh34rarq0quYB6fRQcAy18hi3LdWwOlBL0GL2ExHfTudM8mNH2RMBIpCOAAB8FQ1npts0LjehUGrlxTND6H8JjdVurO6YdDt1yfj875K90NonofdYtLztihHVdH0w9j4AvBv3ubBfAsB/R85J3aFb/NmAYq4Kaua68OFd1dyMh3nxX9bZW3iQ12L2YwCAdvauiRwwxoO8H4tNn74TASJQRgRUnVWide9kAxZd3+TqjOeWFw6gl1Y7oJj23DdrXE07n7bC/Ri0u2cyO2jbYUsN7yyjbkxFJQJEYKoRwHX3EdkIRs225DPAUdzMBRkuoS3YeCIkqWZoRNbtVXta0tr+KxTfqxfuChuINZmtGhabCwAfmWr9nOpDBIhAGRII6tb+BVPYGGyhBnW30kXzP7iH0j4g26rBQvsa+kI3FMH9Or6QoMJAfdcoqlMHI8ZNP1qGXZiKTASIwFQkgCfu0Y5YIbSm3BrAp1M6uPS340Q3TmNA0iz7WNtQWAXardktOptEBYOq5oGgYfGwG4qIRYaCmROais8N1YkIEIEiEEAfOXTuKfNluWIJS/TJ9KsXD8DaA22h/jEtxG0bxhQTraqH9tT3wJKt9fD71dWAB6px3wjdfqC/JnQrjqrUqIyBNuTuW1MNz29rhAMn+4Oozs24rQd1tj3iioJmS0V4xigLIkAEciCA7gnQodo1i3aXzCZ9sQRAueWD5oLQjcf8DbWwrqo9VNc5ancNK+jDCj0DA/qxwnNWAcUAdBHCuY2+zDsl1dinG3xJxJ3FZ1CtO4euQlGIABEgAsUlAACzG7vGpHIbrKm8qWd8G6s7TJOxe4vbmyg3IkAEiICLBGTN2o8uqmnATz3glxsf3MdSDdbjYlehpIgAESACxSOAbqvRECZ6Ai23AZjKm16g4rEBdHdevB5FOREBIkAEXCKAZl5OdIzQ8p5LRmHzEZpoMBXVzN10b/JmVbtpMvs+l7oLJUMEiAARKB6BoMHWPf12Hc2eSkBAoRZeU/cYNPcE4NZlla60yW3LDkJQt1qL16MoJyJABIiACwTQzhlaDLhsQekbLM1nZlJOcXH2hLOogYAGh1sGAS075FN+PPyrW1wDgE+60GUoCSJABIhAcQigaaPO4WAgnwGQ4qbfB8qFEfpdQmvcsmbBxsMd4fNMuaSDcdBlOqqXF6dXUS5EgAgQARcIAMBv1x9qJ6eEJbC8l0z4/GzBDthyrBMCqgnPVTTkZKMPXZsHDbbGhS5DSRABIkAEikNA1qztpF5emBlQMoGT63U8nFvXOQKdQ0G4Z/XhrJb9rntmDy7zDRWnV1EuRIAIEAEXCBgWH7vy6fz2OHIdcCleboLx/lePQN+oGt6fQnNGmXKM7EN9woVuQ0kQASJABApLAAD+SjOZmukAR+FyEyiF4IYGY3G5T9LM8P6UOHdbWkFV3zkaAID/KWyvotSJABEgAi4QAIALa04N0/mnEt5/Sifc0CI5KlBE96dSWTpfs6+Vc9t+xoWuQ0kQASJABApLwAa47Y3KUyzdIEj3S2fmlKwtfvHMXqhuHYTuYQXuXVPtOJt6cuMJwD/FYBUAIBS2d1HqRIAIEIE8CCi6tRy1u5INenS99AVTfBvdtfIQnB4KQk37MFz/7N4JbXvDs3vD1s1X7WnhhsU1zeJPAsCf5NGFKCoRIAJEoDAEJNWsylYbLH5ApN+lJ8RwmW/h23UwGjTC6unoGwrbCd10qAYD1OhDk0oVx7t0k9mSbdvXAcC7CtPLKFUiQASIQA4EVIP1Xbt4z4S3bBI4pSdwcm0T/7xtsLayDZ0bhg/8oqfkoG7Zd648dKbNUVjVnh4JagbrAoD/zKEbURQiQASIgLsE0Fkdt0MM36pzHQApXnkIMxRC+xv7oGdEAVm3+BPrjye0OS4N9o9pimqyAwDwt+72NkqNCBABIpAFAQD4sGFxnYRMeQgZN9oJl3MNi4cGApp9x8tnZ1HRtHFp8PmKRq5bXNUN/gwA/GkWXYqCEgEiQATcIYCGQ2XNUqKDE31OD0GFQujt6tMh3eKhxu4xdv2SiYoU2A9waXDdwXZdt3iQ2fZvAeA97vQ6SoUIEAEikAEBAPCOyAadgSrjM1D5vFSgksSJjlHLZHZo2/FufvG8cUWK2DRxabCmfUhRDdYLALMy6FYUhAgQASKQPwEA+GLfqEJWzKepgIoKol+9WAm9I4qlmSy0tKLRdjroi/tTfaNaUNWtgwDw+fx7H6VABIgAEUhBAAC+1j4gj0UHKvqcHkt8ydp5wcZaNJvEhyTddjroG1Fdt9E0lmHyNQDw0RTdi24RASJABHInAAD/0tIbIAE1zWdQsQILhdDGwx0hnE01do+y+IO+GNY/dxu8WXXKMBlXmW3fCwB/mHsvpJhEgAgQAQcCAPBPnUNBElAkoBJUzvFg77FTw0y3GOyo7WHRg76xwuyaxbvhcPNAUDN4H+1POTxgdIkIEIHcCQDA5wbGVFKSIAGVIKCiguiW5/dD53DQ0kweWr6r2caDvtF70U9UV+8dUYOqzg4BwN/l3iMpJhEgAkQgQgAAzh1TTDk60NBnYfagcG9n5Z4W+OmjWxMG93JhPn/DcZBUk48GDf7I68cS6nHBg5th/obakKJbmmayVwHgY/SgEQEiQARyJoCb3KpBvqAKLSQuf3In7KnvhSFJB7TgcEGZzthQCL1x8FRINVjoZE+A3fjcvgRBNfuxrfDKvhYLDdGazL4PAN6bcweliESACExfAgDwfsZtq9ADNKU/PjO75YUD0NA1Cq19Evx2+cGEwb1cOKH/KdyfMpgd2tvQx/A8VXzZr3xqJ+xr6FM0i49wgEsA4B3T90mjmhMBIpATAYvbKloNiB9g6HdhlvuQK7pr7x/Twu7ar16Yubv2UmsT1PDrHAoytEjxwvaT9o8d9qd+t6IKeobVoGqwIwBwfk6dlCIRASIwPQkEdav1l8/vJwFV5GW3nzyyNWxdPOqu3fd4Rdm2wbz14/tTI0HDfuDVIwn1wKXBxZvqbcPiqmXbV0/PJ41qTQSIQNYEgqq11WnTu9Te1qdqeS5bsCPsrynqrv3CBzcnDPDlUHcUQuuq2kOawUIHmwYYnpWKLzeaTeob1RTdZPdn3VEpAhEgAtOPgMXs+S9uP5kwmMQPLvS7cEt+yPbmpfvhxOkR6BoOwu9fcXbXXg5tgAohvaMqkzTLRoEUX2bcrxqSdMWy7eun39NGNSYCRCArAgDwi4qaLi1+IKHfhRVIyfji/lTvqDrurt3ByniyeKV2/XDLIJNU077y6V0JQgoVKHSTq7QnldWjSoGJwPQjAADf6BiUyWBskfegUgkUNDf0XEUD2sWb4K49VZxSvFfXOcp6R1XuZHx28eZ6W9XZ4en3xFGNiQARyJhARNXcdBpESnHQm05lQu3KjYc78IBsWKHCSUuulHlgn8LDvct2NPH4cuKe1ZCkB9HcVsadlQISASIw/QgoutVxM2nyJSxFxQ+qk/Ub93IOtwyG3bWXm0ILavWhB188wBvPDwWXZvJl0++JoxoTASKQMQFFt1Yt2lSXMIDEDyj0e3L2paLc0SdTx6AMx9uHwcmKQzRcqX2OBA321FsnQvHluurpXSi8RjPuqBSQCBCB6UcAAH6++0SPGj+A0O/JFUhO/HHZbOHbdTCmGLDzRA9cOj/RioNTvMm8tv5QO6BpJKcyGBY3AOBPp99TRzUmAkQgIwIAMFPWLaVcbcQ5DXxT/Zo4dxusrWwDWbNg9d4WmPVIopXxUmGAy8dobcKpPJ3DwTEA+HJGHZUCEQEiMD0JoE+fclo2chrspuM19Mm0v7EPBiUdrYmXpCFafPExLA6Xzt+RsIyM/shIQE3PMYdqTQQyJmBY/OmXd7ckaFtNx0G/HOt8x8tVcKpfgqbuMfj1S5UJgmCy64QW0K9emHgmqm9UCQDAFzPuqBSQCBCB6UcAAL5D56FKb88pG8GCqts4ixoJGuFZFR6IzSZ+IcOiw0O0MhGbB+6nMR4yAeCD0++JoxoTASKQMQEAeI/JuObkOiF2UKHvpS/EZj+6NbwvhftTuE/lpOJdzHZER42M2wkOG9FIMR5xyLiTUkAiQASmLwHVYGue33bSLubgRXkVTuChGvfehnFHiejRd7JYz1t3HPrG1IR+tbG6wzAs9vj0feKo5kSACGRMAAD+eSCgkwv4EjJ75IZQWb6zCQAgtHJPi+5GetmmcbRtKLT5aOeE/U10L4JedwHgkxl3UApIBIjA9CWAXk81k3eX4iZ7toMihT87MzvRMSIDwPWGxQPXLk60MF5IVuj3ClXMr48zfLtmX4uFM/bp+7RRzYkAEciaALPtW3fWdpN18ykyi0Jr4ibjCtpcDOrWy0+9daKoS31vHzkNjV2jE5b3UFkCnRfS7Cnrx5MiEIHpTQAAPmpYXC9nD6+FnBGUW9pvj+/zzMVeLWvmBtTyK1YdsA+h9t6tyyaqvR9o7Fd1ZpPTwuk91FDtiUBuBBTdemXVnmZH0zTFGtwon7NLdLmymDNvW3Sf5+MA8DGT2SpeyzW9bOMdbRsMHWjqn7D39KsXD+CS3wgAfCC33kmxiAARmNYEAMCrmUybbPXkbAdECj9RqL26v9VSTesl7MyaaS1fV3XKLBajG57dF7YeEe+wsLVPQhcbl0zrB4wqTwSIQH4EVIO94eTHp1gDHOUzUdhkywOX13SToZbcpwDgc6rBNLTfl206uYbvHArar1W2Tdh7euyNGtAMqxkA3plf76TYRIAITGsCAPAZ1WAqHrLMdZCiePkJmXz4ra1sM9GNCnZiVbf2PbulYYKwyCftdHEfWnsUD+BC7D4mGrMNqCYqa3xjWj9YVHkiQATcIaAYbOOKXU2u70WhiRuynF444YUmjiJacn8JAN8bknQFmacTLG7dH1UMvvDtugnWy1fsauaKbm5yp2dSKkSACEx7AgBwDg50V7hs023VnhZo7BoD3DB3a1CkdM4KvIMn+1XdZPcDwB9ohtWOXm2LxeeVfa3QN6qGLnzwrEBE81n6uFq5Z9o/VASACBAB9wiYjN13qGlAcXOAw9kTui4fCGhho6ZoksfN9KdzWnevOoyq3X0A8D4AuLq5N1A0yyB4KBetlt+16tCE9sRzdZrFnnCvV1JKRIAIEIEZM2YAwHs1i/ffuXLioOOGEMD9rWU7mnBvImzUNHbPwo30p1saKCBGZAP3eb4HAO/WLD58ywvFm6UeONkfOt4+PGGvC32MGRaXAOBD9EARASJABFwnAAA/GAhoyqyHC+O1FS0LbDnWCcOyHnZnHrs8NN2ETD71DauVG3w9dgAA+HrXsBLIJ71s4l61cBcYzE4waVTfOaLYNlzjeqekBIkAESACUQKqwd5C69PZDFrZhkX3C3WdI9DWJ8HtK6omLBNlm9Z0C48zFZPZeMbo49hmAPDTquYBqVgcWvskviXOICzufWmGdRoA3hXtR/RJBIgAEXCdAAB8WLf40D2rDxdccNz/6hHoH1PhcMsg/HzR7oLnV6xBvFD54FLpwJiGS3v+aMOjOvfpIbkoM6i7Vx0CzWRw8bztZ9oKtQZRexCXG6Nlok8iQASIQMEIAMA3FYOpxXBq+OOHt8BzFQ0gaSZsPNwBxTxkWihBUqh0tx3v0jWTT7AMjntQhsXHbn5+/xmhUaj8hySdv7h9oh+xpRWNtqKzXQXrjJQwESACRCCegGGyR493DCvFOseEtuNQQKEiBQqsYp7nKdSA7ma6j7x+LKSZvAcA/ii+rXCZb0w1lXhXF27mv7SiEcYUIxS7P+mfuw1nVGit/LPxZaLfRIAIEIGCEcA3c9VkNejPx82BLl1av3hmL1S3DkL3sAL3raku+KwgXXlK4f51z+yJCoIvJWtwzvnFuDeFdvjc1pK88KEtENQtGy1HxPLYdOS0oRt8SbIy0XUiQASIQMEIAMCf6Yz3PLG+doJKcewgVajvd608BKcHg1DTPgxokLRQ+ZR6ujizHJYNhXN+abqGBoCP6AZ/Bg0A49KbW1qSO2q7Q+0Dsh07m0ahGVHW+LN05aL7RIAIEIGCEACATxsWD97xcvG17XCZb+HbdTAaNMLq6cXYEyslgYX7c009Y4pmsIezaVxsM1W39g4G9ODvX8lvFnrp/LB1iFD8OStc/mW2/ctsykVhiQARIAKuEwCA76BB2WsmSdMO9zrWVrbBmGKGD/zG7oOUkkBxsyw4Wzlwsl9TDbYOAN6RS6MCwIUGs3uOtQ3JubZdfeeova+xb4KvpztePgS6afcCwB/mUi6KQwSIABFwlQDncOWYYqpXL5w8dfBrFu8Om0zqHVHDJpTcFAillBYKJ9TYU01WjRY+8mlIFCLMtm81LK6sP9RuZLM/9etxp4OAB6yjfHBW2zeq4Tms/8mnXBSXCBABIuAqAdu2r5I0S0FBER2wJuMT3+DbB2Q4cXoEbl5aePXqYtYRhdPmY52GaljHAeCP3WrA+P2pTLQke0dV/tqBib6e1h1qNxWD1MrdahdKhwgQARcJ2DZcLWumhpvkxRy44/O64MHNMH9DbXh/aueJHrhswY5JLU98+XL5jcJpy9FOnDnVuCmcYpsfAD6v6qwKZ0GoiJKsnE+sPw6hUCg8U8VD1Hhwu6Z9SNFNdhKVZ2LTpO9EgAgQgZIhwDlcEdQtDVXCkw1wxbo++9GtsHpvC8iaFf5EQ6rFytvNfHBGs/NEt66ZDGdOHyx0YwPAD3WT9x47NaTEv2ygQoxqWKpt2wtkzTqsW7xfUs0jtm1fDwDvKXTZKH0iQASIQM4E0OaayeyRW5dVlowwQF9WOJNCQ7Q4s8LZiJsCpJBp4b5QQ9eoohqsAgA+kHPDZBkRhQ2z7V+bzJba+qXA4eaBYO+IIunM7geA72aZHAUnAkSACEw+ATSF1DkULJqB0myEAzpHRCeJLb0BuG3ZwZIXUlc+vQv6xzRFt/hidDw4Ga0b8Sn1bQCYBQBfBYB3TkY5KE8iQASIQN4EAOCK7ce7XXVumI0QShcWZ09RR4loiPbqhaXpKBH3gBTdUi3bvjHvRilAApLPM0f2ebZLfmH9mO+8fylAFpQkESACRMBdAgDw69cr21g6QTHZ96OOEnF/Cu38ZaNiXciy437TawfaTMPiowBQkgM/CiRJFEKSKEDk35Yv8n7d3Z5EqREBIkAEXCYAABcfaOwPFnIQdzPtny3YEbZEgQd90RCtWyaAcikjnilq7hlTVZ3tA4C/yKdpRmed+yHJ5/1+wOeZFfAJVyX7l0XvLwM+z2+c/iW/927ZLzwU/y+J3v0xwikipDz78ikvxSUCRIAIFJwAAHgDqqmgqncug/RkxUGXFOgosXMoGFabLmY5kNXiTfW2bjKNMft3+e7zyP6ZMyVR6EkUImdmPNGZj6ufAd95SQ3WFrzjUQZEgAgQgUwI4FmaBRtqQ8Uc5N3KCx0l9o2qYUO0/7uk8Kry1y7egzb1gqoRPt/kimsKSfS+UmzhFM7P53kpk/5BYYgAESACRSMwNvv8c3APIuATvoP/2qJf/yLY1qBPpumjfAQW7gNFHSVuOdY5wUtsPunGxvXP2wbrqtpNtPpt2/Y1+c6aYhtbEoVDkyOgBEO56FMfjS0LfScCRIAIFJ0AzPrMeyS/cIPkF1qdBkN5zqdNuXqXgaaHYgfmcvoe6yhx2Y4mQAvi+ZYflTNW7GpiuJynm/xFAPiY240XEIXbndqkKNf8wh1u14fSIwJEgAhkTCA457y/kEShMu2A5/fayvIHtIMn2tUrnzprVDTfQb7Y8dGaQnXLuKNEVFHPJX8UTM9uabCDuqUqGtsAAELGwLMMCLNm/IHk9/5C8gtvSaJQEf8fEIW1st+7Jum/6Fki+4VnnP4lUVgUVZqQROGkQx/ogau+9O4si0zBiQARIAL5E4BLz3lvtktI8pV/L2k71xqv7W81Zz9WnuaGUCjFOkq88bnMHCVe/MR2WLO3lasG04O6uQUAvph/K5RGCpIo+BwEFCpe+EqjhFQKIkAEphUByS/ckWRQSqsRJt/83dHg8QP6kxtPhMpNyy86a8L9KXSUOKYYYfNJ6LQvei/6eeEDm3C2BD0jCtdNHrIsvhUAPFOto+BMKSAK3Q79oXKq1ZXqQwSIQIkTgG99612SKAw7DEhphVNMnJD8yBVjvc1Nyu0riu+JNypE8v2MOkqMGqKd9cgWePSNY2g3z1YNFhoMaPbSisbQfWuqwxYhOMCFJd68ORUv6QuLz/vlnBKkSESACBCBXAjI4syvxQiabIRSYtg551vq8geVI3UdKrpsyFdgTFZ89H+F56csZoPJOKyv6uDxLtBvWrof0CkgAPxVLtxLOU54P9InGAn9wi+sKOVyU9mIABGYYgQkn0dMGIjOmrtJFEKZ3Lv8C7K+bbWxoaotK4+ukyWQkuW7fGczaCYLLXy7zvH812v7W5lu8GenWJcIV0cShRcc+oWpXHqO6xqKU5Ef1YkIEAEXCAREz48dBqLcBFOc8JJv/PaIdnyfvnhzvY37PMkEQSlf/+3ygzhTgngfSlhmPBOmWXzUhWYouSTGZnu+6Ngv/N67S66wVCAiQASmJoHRi2Z+3nEgihM2eYW5/5KRweaTCnppLWVhlKxs1S2DoT31vTz+PlpRZ9y2AOD9U7F3SKKwJ7HdvX14Xm4q1pfqRASIQIkRgBkz3iGJQkPiQOSyjTe/lwefu07IZrEAACAASURBVF2uP3k6WAqeeeOFTarftzy/H5UiHIWrbnEdAD5SYs3qSnGSzq59njmuZECJEAEiQATSEZBEj7/gAio6I/vZ54La5mX6liPtOlp1SCUYSuket0MQ714ez39xO2Sk41uu9yManqcd+sahcq0TlZsIEIEyJBAQhaUOA5Ere1GO6f7v10fUI7uM57ed5G6YGyqkMPvJI1tQEEH8Ptq9qG5uWDVl2NwZF1kWhV87tZ98keerGSdCAYkAESAC+RCImNK5WxIF22lAKtQ1+Xc/Gh1prNEeePVIyc6mFm2qQzftdqwQxP2nzkE5iG7T8+Fe6nEDvr/+sCQKikP7ryz1slP5iAARmGIEghd5PiuJwrxx00fePkn0jjr/C72SKLSl+W+URKE6zf9B+br/d0jZv7H/ZPdYEM8XxQqCUviO1iOW72qeIKDmr68NqQarBYB3TLEukFAdtN/nIKAsdfbMTyQEpgtEgAgQgalGAF1TAMAlJrPH9jb0aZfO31ESgmruuuOgGCx00WMVZ8qDRmJl3cJDul+Zau0QWx9UoMEZFLpdcRBQuPx7b2x4+k4EiAARmNIEAOCDBrPnGhZX0YUFmhuazFlUQDHsp96aeFD3lb0tLNh0vCliAdzRQvhZq+EpLIz7vWvirZI7/E41Az2SZgZ7ynn2G50VC2NJBE+me48D8B+eP5zSHZIqRwSIABGIJwAA56oG33x6UA5e8kSi8dZiCK03Dp6CvjHVvjDG1f3lT+4EQzes4A3fzHQQn9rhfB4xvu3oNxEgAkRgWhAwLDZ/d12PWgyBFJsHLumhgdi7Vk10zri3vltX1y2x8px5TCGh5d0/LToiVZIIEAEiEE8Al/zQWkOs8CjG9+rWQftY+/AE6xE3o4FYRTHlK744hQRM/geyA3Nm/kN8u9FvIkAEiMCUJwAA7+N2yIo/g1RIIXXN4j2gmwyuXbxnwv5XS/eIpi65LUSzpwSh9sKU74hUQSJABIhAPAEAEOtPj0qFFEjxaXcMynzTkU4Wex3dwqsjQyOSf+a2OEWGjcncrEt+YdVZZYlEd+sBUXgk6mo9/lMSPXcGfJ7fOP1LPs9NAZ9wleO/6L0y4PPMSvYv+c/794BP+I7TP7peCfjO+5LT/5jf+4WATzhX8glPJAhon2Cgi474tqPfRIAIEIEpSwAA3qMZrP/OlRP3gWIFh9vf0RkhesyNNcOEli5GgyYeyv3OlIWdYcW0i71/KYlC4h6cT/hdhklQMCJABIhA+RNgtn3r0bahoNtCKFV6I0GDL61onHAo96UdTVzRrYryJ+pODWRReDVhFiUKPegu3p0cKBUiQASIQAkTAIA/NSwux+8DpRIu+d5bvrMJRoNGKNY24MVPbEd/UCoAeEsYV1GLFvQJ33AQUCD5vLOLWhDKjAgQASIwGQR0iy/ZVH1az1foZBp/1sNbUK3cjrcJuLWm09AM/vRkMCjlPCPmq+K0GUnlvJTbjMpGBIiACwQAYKZuMu3iecU7oLuvoTfU0huYoFaOfqtMZss4m3OhWlMqCdnnudxxFiV6/3FKVZQqQwSIABGIJaBarOKl7ScnaNFlOhPKJdzlT+3EZbzQL5+faKi27vSIYtn29bFlo+/jBNDEkSQKAwlCyud5iRgRASJABKYkAQD4p4BqKrjklouwySUOzpx2neiZMHu695WwNl8nANDGf5KeJoveBxMElCiYyqXnfCxJFLpMBIgAEShfArrBn3tpe9MELbpchE6mcX73clX4UO5lC85aT0fbe/1jGqqVf798SRa+5KNzzv1rSRRYopDy3Fn43CkHIkAEiECRCUiqWXnP6sNFmz0NBjS+ak/rhNnTki0Ntmayg0WuellmJ/uE1xIFlNALsz7znrKsEBWaCBABIpCMgKyZG55Yf7woAmrJlnqQNSuE/p2iMy5x7jbQzLBa+eeSlZGunyUQvMjzTQcBhdp9vrOh6BsRIAJEYAoQAIDLajuGC344F5fxJM205607HooKJ/zccLjDVE3+4hRAWZQqSP7zPJIomA5CqrIoBaBMiAARIALFIhA2b2Ty04s31Rd0H2prTVeocyhoX/DApjOzp6sX7ka1cvSUS5v8GTT4mO9TfyOJQruDcBo/H+XzfjmDZCgIESACRKB8CADAeUrz8YF9x09rscoLsTOdfL5f/MS2sL2925YdPCOcML0jbUOKyezflg+pyStp2HCsKHQmFU4iWjz3Lp+8ElLORIAIEIECEIBLz3mvJHp75Gu+MqrtXW+8vLvZctP1e33nCD/UPDjhnNXtK6pAs/gAALy3AFWaUklGZk6nUgunsEsOC43LTqnKU2WIABGY3gRk0fvL2MFPvvUHg3LTcW3BhtpQ7JJcLrOom9DpoMXh54t2n5k9XfDgZugaCgY5wKzpTT597SOq5ZkIp/FlPr/37vSpUggiQASIQBkQGJz1mT9ytFDgn2mqQwP1pwfl4K3LKs8Il2yFVO+oyt882D5BrfzJjSdCqmHVAsA7ygDRpBUxMGfmpyTR0xH78hDzXZJEQY/5HbHT5+0jlfNJazLKmAgQATcJBETvbYmDnADo+A8FCAf4iW7xwUPNA+qVT+/KSlDNW38cDcKGfI9XnIk3+7GtIGkWWisnG3IpGjLNzElBC+cBUVjq1HaS6PGnSJpuEQEiQARKn8DorHM/JInCiMMgZ47NPv+caA0A4P26ye43GVffqDplopBJN5PCpcGAavLFm+rOqJXj0t6+xj5NMzlt5kfhOnxGhFObQ7vgLEnBs1AYLTjnvL+VRCHkEK7aIVm6RASIABEoHwKS33u3w+AGks/zpFMtAOBvVIOvD2iWMnddTcr9qdcPnApZ3Ab0znvNot2AbjWaewNB1WQHUOA5pU/XZswYmX3eX0mikFQ4jfk934rlJIveHY5tKHq+EhuOvhMBIkAEyoaANOuzfyqJQiB+cAuIgqbOnvmJVBUBgK+pBms43dau/OrFAwmzqVuXHQSD2YrF7SeDulWHbuRlzTrIAS4DgHemSns630uzrBeU/d5/jucj+zz/E9+Gkd8vx4el30SACBCBBALoKgGXYwJzZn5bFr0XyD7hUskv3CCJnjtlv/AQ/ks+z10Bn+c3kt/7i4DPMwv3GOSLz/cWyq23LHoecBzYfJ7HEyrgcAEFjXLL9w4pyx7QG2tPBhdvrocnN56A6l17dcPiYwDwXYdodCkJgbTLej7hG05R4e4Z75T8QqtDW5qq/9Mfd4rjdK33qk+8P+D3/D166Q2Iws+xL45bT/c8JYneZbgnKYnConBfFYV7Zb/wK8nnEWVx5tfwhQZmzCCFFyewdI0IlBKBwE8950l+78WRB3mdJAotkihwhwEkonUVPr+S6rsl+TxNkiisCy/J+c/797FLz/mTfOocnHPeX0iiEHQoUxDvZZp2wCdcFUkjJF31D6p8xd+Htcrk389OeNPPNM3pGC7dsl50zykZG0n03OjQlnhw9x6nOChQAn7PTySf53FJFDZHrFM47WWl6pcT7/kEQxKFekkUXpREz7Uo7OBb33qXU/50jQgQgSIRkC/y/hk+7LLoWSKJQubnVcIn/9MKp4mDwNk4oYDoqQ2IwiM4K8tWrTgyMCWkjW/M2WDDN3THTXq/cEc26UznsCOi55NJZkDYPmr8npMTqxHR80FJFGQHIdWPs3ecHcl+7w8jWn/F6qPh8kuisCXg81xDB4idWo6uEYECEBj62cw/lkXPzyRR2COJgu0wMCQM/gUOEwj4hOfDwuruGSn3eMJvz6KgOZRHwn2pbHFJolCVkJbPczjbdKZj+LBwGp9hO/UXFdszUy6SKMxPaIfxF5pq3FdMcs8p30JdwxnaITzWkG6PM9M6UzgiQAQiBHCNHd9mx5cwBKUEHnjHgUQWhS7JL9yRbKlOEnFPwWHmlqMFgoAo3O6QXojemFM/Osgnsvyb0I4oUAKi919TpzDxbsTKeSm8LCXUx6F/sIAorA34he/S3tXEdqRfRCArArgJHRC9Pw2IwgmHBy2Th3FywvgEA2dVwTnCp6MVDm/Ej+8VxJdpBM9ERcNl86mI53/OiQtutGeTznQKGxFOzUm4aQGf8J1seGAbS35hRYnM5uP7VrrfzQG/cHWhlIGy4UhhiUBKAthJA76//nD8Pz7QaM3Z+f+8LwV8if/yRZ6v4oPu9I+adKgpl/CPgsgnXBX+R02m8El9b6/TQOLWtfHlF++ok8q3S3lwtHIt+c4VIvtkCQNGwO/Ny6K487kd76aUjT1Nb+Ly1v85F0wunPxCxtqPQdHzGUn0rC6AYEJ/U52SXzgqiUK15Bf24qfsF46Pt7W3rwD99RRqt5JixTR9MEq52riJK/mFVXlquyUMvC4N8PmkixvXB8ZVdL3XST7v92X/ef8P33iVS8/5GG5gR9sFNblweQ4HsNGLZn4+IHr+LSIoH5H8wnpJFHryrA+TRAH/J9bHLwyiPb5oOXL5lHzCEwnp+gQD9+pySW+qxokIp5MJrMbbRMc2z6TuqMUZYZ7YnvHtm/r3sCQKGySf8Hs0jxQ+A+f/9MczXXYbt0Ti/Uf05osagygsA6LQnaR+E/tdsnL5PE34ApkJBwpDBIpCYLxzxw2cyTpwaV8fkHyel8JnSXzCuZk+6Ag56owuFXDUmguInh9LfmFhsrfwbAcHtGSeKs9M7o35zvsXp3yxrJnEnw5hIhqPSYWT5D/v39NxwP4k+zyXS35h0Il3Btdw73QdLr/iS1J8/8RZE65SpCtHuvt4fg/zkETvK5IoDGVQrkTh5RfW45J0urzoPhEoOIHIDCGxk5a2MAqXF9W9wwLW5/0y7lflCivikK4tm/hjPuHvUNU8vByTG6temPXJ92WTp1NYXJqVxPAyZVwbepc5hZ9u1yLCqdFxoA7vCXr/Ix2TiMbfFsc0Mmt7jmmkykcShY2ojp4qTLb3cMlOFoX/iixFOlhfT/liquALFC37ZUudwrtKIGxBIbOHLG4ATNm5CxZWFr2WJAov4yl6t0BEtLCac0kPBWPY8oRfeCZLleIx3IfLJc/4OJFN+njmw9N9cMGlXEkUkgsnn/f78Szjf0s+zxxJFMbyEE7hdkGNy/i0Y3+PWxfx3Bl7zc3vuCQo+703R+qB+1zx/SXJb88+XAJ3syyUFhHImMD4G3j4HEf/+Js4vo3H/of3X9CAptP/kfBGLm7mTvyvlEShwuk/4PO8Ifu9a2S/d68sCpk/KD6BST5hUTIV7owr7BAQl0UkUTjpcCurS8pFn/poxIqF08FNxwEAlUH653z+A1llFBc4bJnAYcBJZwUhLpkp9RPbQhKFBseBGGdOfuE/U1UY9ygDPs+zjvEdWIfD+TyHJdH7H06zatwfSqUth0vTsii8mqpM+d77P+v5/4vnocKajD7Pk84+rRwF13A6XvmWjeITgZIgML7s4H3Q0QqCw4MfnpWMP0wmmnApRCXCqsKi0OBW2qgJibb+krjTSBBUqKGFDvJyzT9izSBR2Gdo2y/XfEs1XkQ4oemfBNaSKJjyRZ4fpCp7xPxR4iFo5/Qwj0bc84vuKyXz84VCKFm+wYs8n0WzWsnu53sdy4YCW/YLl0XTiqjcv5jhsxgKiMLDMGvGH0Tj0ycRmFIEUANKFoWdSQaO+MHExrNE0eWFyNvsukIACQ8OolDnZtqRAeFYhnXFug9nY70gvqxo1sYhr5b4cFP9d1rh5Pf8dyoGgTkz/8HRy7GzcBoOiN4r45dS0QRXktnJgWR5YxpoXgm1apOFyef6uDKNd9Rp31Pyeb/saJXEuc7rClXGfOpHcYlAXgQiA0emA3ZzvB20swddva57g0XVcpzF5FXBuMi4v+QgMOKFcPxvE61UxyWV0U9J9F7nlB+e18kogSkQKDjL8+cpDnVb6ZQQ8AVBEgV05x7fLk6/N6QyG5TU467P++VkqMNnn1LcTxYvk+u4rI52IJOFxReqiAHiTCy1VBViqT1Z2eg6ESgoAfQQm6FqNkPXF8kMsEbcDmxwu7Bjfu8XJFE45la6YTcMolDnMNChZfV0JnFCks9zU7ZlibiMSLCKHRA9t2abVjmGxwEzpXBKc75H8gsX4fKfQ5tNEE64l5RuiRD5oZanc1repB6N0ZSX7Pde4Tb/iCajiXut6dKO7MemX970eZryWZZOVw66TwSKQgDf4DM7QOjpwIO0qQoVOa9kSqK7s6iwLx5ROJIq72zu4SzIeXASXkQbaJIo9Ce5f2YwzEWwRKwPnEkjkkdlNmUvx7DjMyc8cuA487HGfMKFqeqF5rQyPKhuZXJmKppXxKBxfHuYqF0YDRP7GdGyWxB7zY3vaB8SFZYyTQtfEFMYwI2tz2k6L5UpVQpXcgQi54vSDsZ4oj5TP0uyKCyW/MJbblY2vO/gkhXw8F7CuA+p2AcZv1vRg5g4QCV3F352kMUjANnUM4kbeTvZgJhN2qUaNp1wCviFH6Uqu+z3/De2TRLhdrYNfZ7H0YQXuufAPaZUaUbvhQ92OwnNJMaBw6bB/MKuaHw3PseVkoSudELaKa+Idqiahk3zVO5fTlzo2hQggANHJst6AdHzWDaaQWf2ouYI/+QWpsgm8UE30kMtKacHGpcnY9NHleNk9vli4+O+QGy8VN8jM8Gzg2pkcCzEslGqchTrHgqKiI26hDqjaal058zCe07OBnxj08MXizNtgF6XUSElk4PhEcWHztj2HP/u7Ys1tRXlFdmnHYn+duMz7EVaFLqwLLmkJ80R/indjB+XVuWLz/9ILulTHCJQdAJ4ricDrSAbLSnnUriIuaHNucR1iiOJnq+g3T6ne9lciyyNJDql8wlGsqUQ2SfckkbNl8s+z/9kUo6I5mDigOgX1mcSv5zChIWTKNQkDv7hGSjDt/9U9ZH9M2c6W+A4O4NFrTonG31h25U+z12p0o/ew6VaxzL6PHOiYWI/URikszoRGz7dd8knbMV93XThUt3HvaYMXjYr4dJz3psqHbpHBCadQPit0S+85fhQnl3uYLgpnWthw+dUfIKBSy65phEbD61SSKJnX+y1XL6jwHWst8/zZKr0cIaTRnlCHZvt+WKqNKL3JNH7dHwZ8CzZVFINxrd1OZVwEr0/jfJw+kTnkBkMuEmdFqKBX0kU6nA/0Sn92GsoSB0tjCRZUh4XKOktXMTmkew7WtFHxY9U2obJ4sZfjyhaOB98jjzXqLkYH49+E4GSIoCuy+MHyLjfzA2LyeGB2CdsdaPyst/7z7ihnU9a+PaYxIKAhg93urQlv/fi1Bv1no5M9j4kn+d7cbzDy1WZzsLSlXOy76NwQo1LpzqG+aV58cHlZNnn2Z4kfnRpL6lwitY/cnauHQ+7Rq8l+wz4vc855eekFIRL3rkoyDjljWrlblqnwCXIFJqSEXaea53KQteIwKQTiGiopVKjDuFA7EZBIwY8dTds8qFJIDxAnE+5JJ9wvdMghANOpumOW6GesMQUHTCjn9vS7X1ElhkTzvJMhbfb8Mxn3E9SlEfsJ6rw+9Kxjmi0xcaL/84y1dRDNxk4805lwgjLEznGEJ8PoBHX+PJGXlRWxl/P9jceyEVLJvkc/nbKM+K2pN2pr0euWfJF3q87xaVrRGDSCIxv8IadqTk8iOODrhvuJWIrKI2bQNoWey2X7/gQ41t1LnExTtinluhY9yAqi2STbhJNvDNMM3m7jrhaOBMnMnAMpBNu2ZSz2GEjy3Jo+zG+Xvibo7BIV6bxpVwHv1wxaWbrjVgShUWpDsBGyxQQhd0OZbfiZ2CR81N5WzWJKOs04r5ktAxufY7v36V05dGZq5dot8pI6RCBMwQiB1OdTO2cGUzQVNGZCC59idgS03GJLp8kUb03m3Mi8XlFFB3O1DU6EMk+z/3xYTP5LYneZdE0HD6tdOfAkp3DclpSyqQ8kx1m3LahkFw4JVE4iC33uL1CT4cDzzPtFvALj8bGyeQ7auNJPs/hdMvWqO7ulHd8HwkbqRUFzUnLL5PyRMOgUVjJL9wQ/e32J86SUqnnT4UZu9vMKL04AuHOHnHXLl/kPd/JPTuqWDu5ZsflugS37BFX7bipH/Y4G3XR7vOiR94zD3rid+/+fB+4uKqd+SmJwgI8U3TmQg5fUFMLVYdziDojvGHu7MQugANrLmlGlmeSDcjIuS6ZtQ3MLzLbSPD4ipbWcynPZMaJCCe0lu/Uv+xMl4wdPQ9PTHNzrjPMiJbbKXTbkoxVROX8dEI9/MJgvPYbtm+mSjFO+UXsCaqZni10SiOTa5LouTahPmeZhtCyeybpUJhpSADX4yVRyNjtQ4qO5jQwZHNt2A0tomRNGFkT1+Nt9yUL73Qd9xwk0fO2071019DPjzO7/Hz7RKxmjDinjYN16vSTHARuTFefUro/7l4dXVg4CyfZJ1yaSXnR1iKei0qSDkiitw+XqDNJK1kYNH+EljzihU1s+GS+12TR87PYcJIorMxU8MbGi37H2UshViyi6Uc/IysnyRRWQBaFLlrqi9KizzME8MF2VG11ftCzETZZh013kv9MofP4gm/HgTxO4KOvG/Romm0R8OFLcpZmGJeUsk0vPnxKg7N4wNR3rhAfJ/pbEj03Og3Imdhji6YxmZ9h4YTLVM591o51G5GqnJGzYXuSpIP9Gc/jpVUXT5VH9B5qsKYSDKiBmOS5nGAHEvcZs1GuieaPn5EZp1oo1zTRvCIH8Tfj+UFJFALJ+OZaj2g+9DkFCUTeGLMWJsk6Wa7X0TlhMfCiGjc++LlqLEXefrM+zBp2N+8wgGZroigVo9T7Ud43k8WNmJlK6AO4X5YsTqlcTyuc4mYcqcod8YibwOFMn/Z756aKn809XMZDbVBZ9F6SLF7EbUxCeWKdS0o+7/fxPFSyNFJdR0PDkii4YhUlWT6R/adO3LNDDcaIFfSEOoUZ+wQDjUUnS4uuT0MC2GkkMfWG8JkH1GGAdekerrf34htUMQ6JSqIwL9ezTHhGSBKTD/ZOXShyHidBnRstAeTrITc2v/HB2lFDMDwgoJ+f2PCx35OcWcnrvFds+oX4Pj4rFZJZ07azMdsU2cvrTdafcQkK9xDdrAfapUN7fYp4/uec0k328hgQhbXR8JEjFP3R35l+hmeLPk9TKgGZaVpO4TB92S/8Cv1loQ3DaBi8jisYyTjjkmU0LH0SgTABVIqQ/MJ6fFgi7tpPxrllj7ppx2UUR/fsEdfs6J59wn/4LdAvbE3RIQHfAnG5IeIioy0gev+1kE0THhjCpmmyzwcNacYOEJmUM+La3eGt0XNjJvGzCfP/2/vyuEmK+u6NiYm5YzR5c5gobFevV8zhbd4kJJ6o7NOzZiPb3UuIUSLeR+IVjKvs9LPrAYqAt3igAq9GEHZ6FohoBEEORWQBuXd1cWGX3enZXRb2mtdvddXz1NRUVVf39BzPbv0xn56uruNX366uX9Wvfkdub6M8h0H72tUyNMQU72i/jcFvGfrqyssiA1+loBn9PIhD+TJtsRDnineUYzkq8TN1KhuRDToxryZo534xfAUCWJY9F8vtEP3to1gQYuHQDclXMYdwp8fiu2BhOvbo3129EQjEtt1/h8AAAiZfexjIYgF2xrMJnsh1H62Yv+p/2KNUcVkEr9NlLO4ReyiLyEBgN4QVUUUsrdofXq5whRp6L+R5xStz9DkwQY9qhS22XfY/Y05X6ia4sn4bi6UIflqWxjL5c4UI/1xVGSyIVP3sROT9PD92JGXPxrDIGsWZD3OmDOPcj5i0R/UKQ3RBUHscN46VuzoE+hDAbkj1gbG0h8SVIC9IV2Ax+UQWkY1gWDy9zmtuLKx28GlqJw8roJ5MVOWy2D9F3f9yK3xV3bo0pjo8EJAwp8O/QlWOaVkNiLjK7hZVddeZxpgTDtsHmCl2Tp3QO7Fse2DCmvrQxv5RK4tQcVtELsAuTqYd7pY0Ivj7+e6HmU+8VS6ru2diwYdMqu66sqZ06iElJvfZ7DZzg3Vyrwb3AzDwNbXlnjkEakGAiQRVkwlUds8wNUIPWCEnh9jQMq6OqT75GVaQZT2Ts2iqVnJy5jRTFSNn46hsvXgfmYhFjbsm/AgTscpldpnUoXl747jivE7jZQE0wzXW68rSwZiDKqIxx+FLZeuskp8pe9yicselUznnO0XmQPhztu0yhZ3aPPxvfcWS34QrJhoE02DfJdPHzqg4zv3XmJwp53f3DoFaEdDFHGKrpj02Nk90pZXvQu4pCotQlvg58Vu8+EW2ZannhZicbZM/i7zTVSvEbuj9q035YfIwUWn/R893HRr6uxF5qYpenBEOQ0sdZfNJ0L9CSR89c/JfW6UdI04ROahTYKjSVlEZ+r1gQSbFS2JKNqqFzo2UwYb+M+AUt6h+PM/FmWRzN/YDm/xFeWAknEXkNojkyy5kWKgd3S5qN4zIi9p3zx0ClRGA6EEzofRMNiCqBlkcpg1QR7fx+K2qQ5UGWb5JeUAuk6si+1+Q0+X7uWCJnCnMX2+rGhBObkN1z8ImfA5iIYO21EOqQ3WmyTZwXobJR9XWuNLYCv1yzViCKHNANGZLG135z7+bfoY+gdhYuRq215I9VegCVsKzC9tZPgDmU9RvFrl3Ux1jkIWM2WrjeFdHVzcib9O81x52WLpyLt0hMBQCzF2LbnV0ECEIyjYAsVgWkZOzmNwHi3qsHsvWIeef20VZ7hLYeUWhOEVnw2LjqFSm0eaeBdX7Aj2viP3XYTVLtTPp7kJ1XqPWIMQCQDFhbK4Da5t+yHmYe6jvKGgCMzk4jA85nGdpjGEZo/JOh+hNpmnU97BngxKB2A52ckoMGBPNQu/HNt8UDR8Sk3eLdZf9z2JcfakTeTdgjJUtL+Znde1U9s1yVyjW5/47BKwQoAaEupVpRcNC3jALSXAtDBTrMOzrRGQtHGbaTMLwStAJyWc5Lapr5+XeYo1zzJvKhKxX1S2n7VxJnpDF5OwsIndBCTzAfQAAIABJREFUtVo+24K9l+bjv06uC/dwCaTMH/rPUOUfZRqbvHT0w4XTUGr6zIt3/66JjVkWHh6agrsRowm+KUfZV7Fu7IgQZFE2JteonB/AeKNnjgXxrdiC5SGYWYjtlfm/c+XiJ2cRuRnfAFfSKFNelTeLyFnKMReRnlOWUCHm0oZGIIvIl3SDbhiRACcMOzQWInsrtIdkkQjPZ3Nlrlh24gymKH/u/NbsbT0Lvc+r+l7nGRoNghcTON69C5prMmPi/TB5RwBz4/n4lWGBeEnyxL2a55Gv8G0IUQ0O81W/LCTvgy0Y/yFMSJFmXBFz6sb+W2Q6yt4bgxEyr+c4Y2HiNYg+r8bOva6J2UQvC1Nxm3hOCy/oiveC93Qq/C3CfZKpTqh+I7yKKY/pGVu8bLX1a2iqS3yG8aPpV6EfSbEe998hYIUAO/wcOMtgg7Bb5wdOP+SYfAc2TcOIG1h032uLdlE4I4C2mw4ItkodmOCxIh6GifL2IOqBVmMWkTtxBmCyNUEZqmSisMPCuwAz4fWK14zi2c+gIM4R8/D/ucFnf179ZNOX7x7dbpKdqahiIlGmWUesMGZmoAuYuQsMkvcRV+a14vVZRG5iPhVPHWa8iXXr/mNBA61Ffl5kUDnv0IVITNbp6mLf5I4qjpIxhrBjws4JOyhdG1XT8c3lEoC+8cEXSBuq1uvKOQSUCOhCiecTV7GCgbJSQyKz4cHksbUT++/iH7ShyMAjqLHDo7volmUgExxsRuTVCDyneoa0LN/V8I9r7jpsGHWINWGTBE8fnch/VRFjEumDayY10/AuF/Px/zr1X5XNWpEHBnW7dCLapeoDZU4GVzh1HZx3Iv/lBtq0ZgSYTPMVv39uFpGHsAuDo14bBQWOb5krFI0gguZldO8G9nZwx8TzyVemin5T0QJsoBxC70TeDRAjy0xbzjvMvc5XJd4RRJjD1O3KOgT6EOhGXqL7+KFF1Je5xhucRyFWE+wxqsTIoXQjDIJB+SKPa6O232IH2apVudX5lgqKXFXfPx9uqKCeXmUihFhK8z72q1R5mXhpjrnOlVUEtRNsYLibrDuogXW/iBDxqgQXWX6qUnPGSl1zzkJpgRhRhVGVNBrdtp/G+f6GXmRTJ7VzC8lJWUQ2wZckFHjuP3bxn9iUtc0DJg5bPb5wYvG7VCrnt2YR2al6n2gri2gQx1LajtTmD4a3ITnBlt6q+fSh7klPDjFStQ1XziFAEcgirb3KQ6N0X4TGwVzo4Tc0/UKvWcY2g9mbdE0RT9mO4TTVq+5E5L/nJnNx8ithZ8Xrpd4gmH9E9KcKY+J1MU1FFePswTs7zydes4jAH+P8pI0Da8tQ931nJSF50CYYY86c/G/KbfJ7m/D1Iv1F/yGu4nVLV3iOeFRRefE5RG9guHRxRGNJYUGx+EV1iHTRDjVZiMhtfAerMajGuzogejrnNDITjV0QU/I00xXfDGPgtyGsvClvXc/w3UI7V3oX+fgLvc/X1Y6r5zBHgMm696oG2jBxmMrCSsNq5CrTN5cJXw6mRs+LNLsoqDUjppRMDzNKVrgXUovR5PL8nvnEu+jniiS34jC6iriS1yVemfPfPoaDd6QLXc7sw+T8e22YjSTmvECkQ/WfMqfQ+x/VmMlp9N+lKlc1jXn4ULwrypC/V7VelIP7IOahBAEk78CuD4onw9TJ6n0R1TQ9/nGP0Kqc5wuKgV0SlHZM56YibUwD9Tqcc456MSm2i//sbFUec1CUuFvO6+4PAQRyWxjv2aow7bkHcW+5HKo9C/1jsaVX/9RaWnRSZ1paJu095Bs3rMx33s+gwQTmWdQ+E6FkOn9iNIaOIi4QghiqJlhTiAuRltyrtZ/CngURUutiTLyNLPQ+qqJP5+qJxfFRTBYk5HWqrmA2VNTEd18Fqs+FzEmyB1K1WTYtHxP9u8M5bBTvtmz9yE+/vdzH3/cyBIyMydkqN0Zl6mbnNPT8UxMFecAAnkkF9tiIvKlj2nwXM8DkytBZNS8731WNuV4d5iRV6XLlRoAAW9Fvmfvw+IQxyaulMWzdcAihPO6y8fpMjYEjcqNKRIMgfvKuI4v8p+chHvonPRuRGHZ3WUQupMoPITmhbsbEsYRqv2Ys7FL1kymeKMaPdw6vU3WVIvvuNh2sM88VOJtSTkpFoepV7dukGQ/kY/IymzrK5MG3yMRy0Gy9OVfF/9NHlqkDedk7aWMBw0SKKtz6doC5UoXaQTBvH2OOhYTZCHEgTx/3lYXhUPWpx8/gxk2Ta29ECJgOm/UTgm6iqJLuDQw0nIWMqLtW1fJQHp2IfMbkIQAMDaGpMdnKFVN7H0GrCs91DnFNK+adIflbZodzM/z76VSu5far3uP8QvveNeHgNQaUmUr7jtPVL6bRMzPKnEJDnLDQew+vs+6rJILsG6c7wiMeW3d7vD7qEBYi4vz8q4tzHigH8Oc2V2andgsT8yGsRR/9MCzm566UoSHGG7PpUtWP/sLVFzQ9bcS3qjrqTENsK0WfegshunOdOBzydbHgg/LgneT91mkAnYfyQDwmk+o3jEszxS4Kh/WiQaReXOS1VP2FyI/5yNsALSnV7kVVro60nyt44FxkYAzolEL6lB2Ecp3Ie4GKHnb+OKdhpsO3kDnF/ipV/XWlUa/bQn8ETHaaNDjrah9twEsE4orlHkf8K8BEOGMpage7burpIvZXCbTPvVeu9QZFDZhe6OplzoG3wK5sHP0u6hee6xSsYCxtU97lWSAIMPc9c4NWNZDHnDZV4cPBKHIm7p2j2tnN7aIi/+XiK4edFT9LY7ZTKn+DB6GF11cuJM9jboduhA3OOBkTpyNfKSsZlDKWELVJisgDinFyG1W6iMn3aZ0xWUfHW3/sqx0q7xaYLJm2m3pshuR9nN5RXKm2GNSx1Qzq2lG0aaoTniIgysSCidrxwXmxRcgKehYa+Sl2THJfoOSDNrOIXCAGNuR0QKTH5oeNZRSIePlRXPE9QEVfd5Y7TgWrUfTP1SkhkA9C/51sMhBsULg9iteCOEb+wbsz5OWqHwY1d1cjXuHYEnJ1fGjyx8Lvi/zXSeSP5ZYe6OeT6r0Qs8mNwiVPFpENIjPJYvJu7K6QVy8q8s/ndeVGy/4VMHakBp2rFj2MPxv3NYv8L/L30XcNvY+qaGGB7QbUzfvKqid6MJ+rZKUUxpzahvInq+ioM+2B4/w/1revF0nWSYOqLnyvLHouvlV4IlmPcyad6BeMFv73tM5uQ28ldmeykSvtf+55pTWKGGuqvvE0KGxg4YbvAKJypsq+HhqrMHrOIrKZMWrV4mUzr8ddHQKVEDAa201Ag8+2EzyUB1ZvmJR5ORZEbgdEcTwtC733UF9yud2L6kM6kOPgH51F5EqIYmCcLDI5Xte4r4YFxPdg35UflFMmBgetMLgdcNmkn9wHd2ZZ5P8MHgwwmebMia74VZjBxmosGp5MeUhJA7wxjPudqNqjygJ04eRvh3cIvDfRJx8vw6ILY3JX9WdPFvWHqodoFgbFnch/5yhEenjHzHnxSxA8Mgu9DzHbwB/gTDeLSEad4ML8I/Q+RPPE5CUog7LoFwvhoerPQYiGed/d1SFQGgEc/Gs+lh4cupaucIwF5kJ5RGQb9XHH7KAoQ4rIzXwlyzTATmWeAxQfknd37lSUXI8V8SgmAhtY4LGaOjpd4R1D1XdD8j5DNNoezmXyKLzUhY/ORkjs75X0PC4ma+ium06kyokS7/7iLCLanZN4pmfTt2HywJBVN0an7SAeEzLzuH41dkP5jsl/rjimtq9Y8hTDLuo9GLf4UYe9EfmJypDXFk/UA6Nh6hw4Jv+Sn9NiQeMhVhc8aeylYvOQXAwJDMYHM/N4uu1uDeeWuvejEsXb0u7yOQRwwIldgziJzf2ndhsh+XD+ofhvhT85bPWps9GV5JlwvIlVoiwWGjesbBd4LdWCjBd7uZNQrGS9hMVK6lC7Fk0/6UQP0YzG0HfY/mClScMrxP7fQHUcB9zwZp1rz2GioAwS4pIedjBMIQBq7B/TeVlHXrgsorZPg9b8+/NVfP97xc5Q7AtCUgjvXmmoLTyfHxcxWSPWM+r/2qjB8JQR+f886var1k9FYxH5DGVGsJULvTdzrTtT2BA6HiNyGTRNbSb4/FzVfzoYC1uAfIItMHDuuJeOqYh8l9k7ngyFDJznQhuQL+Kq9hHlsjw68Nz4EMdMJyRHDlO3K3uYIwDjVnFA9f2H2x6cgcTkG0yLDdv+O5lnaNkND0RL1BJf+MAuQCA3hFGHOCi3JSEn5E4//aNx2AtPyzhotXXpontd+fmd9w7QwBiANjJwXx9D7/PDMCZMDlgRQx2eOveM/VUs8OFF1GFnRBC9FB/vHqalCVEcAsd9ELGRMKlAtT2fLJ74y3L/DMa32EGtGDxw98+HXz4sJPr6yZgzN56EG6Y+DcGQnIT3omJsYj2qA3yZ5rrvYYgu0iD+B351t1d3fVR5J/TeDINutnM6C5O6znCX9i8mt3PmgV0ZQrUwRv16iDWhYs7iX0H1fRcbaxfQMB4heQPcYaEMzmzr7o9cH4sGoGRQ+Dbk/O7eIWCNAAwIxQ++7/9K8kxTRVjB4wB3Z+Q9kXpVCL0X0lVcHt7iP7KIrKYh5GmsJf989kHCCSnOSmA7sa+vvXwHsR07ilwlFyE5qLeHL2M3gfMWKoIIvROhIIEPFiJK7KBgM4SJgH4seegJG5HXXt0KD3ZDYBpgHugTmAmVwUcEtPDznj1sMrmPTRYX0ThEofceyqxC/8U01MYK/9EmHE3PEHRvEKO5nZGI3x6IOXld7KyD7crm8mMSoR4HBoJTMrsqnHXo2pONnXlbo75i566jSeeXcNQ0VakfCyHqISb3cI93Jy/y5En+Orb7Qd47mRf2T0ErlS5OVpJn2uywqtBapgxz+CzTTu8xL5Spy+V1CPQhgMB5uo9/HKsfrPDgZ40yltB/BsSHVGMo9l9Jd0KwbYKYMSJnsdAVlzIfdbcxR5WqSXhAjVfdR/9nuUyeajJ+jHqHoGrYPtws4RzmQRb1FmK4c5hY7i2YHLCzAXPjB8V9oNZ4w6KhKj9+3iesyjHxyc0qVcNZZOQsIp/j5bHjRVnqs1Abbp5cKNc/rvss8l87RyvbCc7f+0ePi46q7cAzB74lelaT76Q+yhY0Re/1M3SMHXXUL1VtexzlmJ9EZV9svMCMg0bXxgJFwPTxY2e0ELoFJkGD2YVHEupRXBMdd35S69tRKD8slndjJyI/ogfKMVkHFfVuRD7Od3I0jIe0k8NqEju5YcSGIuY0Cu/ApNxH/wGcI4pl+H/Nu32IeTbYwfGg5ga5twTTrjPDRMTrHucV50ycVvmqMyweJ319igh5mBRIDrDTRvh5bnOH61VIp+JuKuLte4+qcThyFf46cMrtwtR9US2c6mjT1XGYIGAKLy4bri4USMZs8AwxDdTaEVtpAzvDwbkAJhyo6P4E3i1ya3uobM/ZrK2hohq6O/Bi+C2DthZCJWDVTJncqkUPs2BQ2rDuLOSDgungXHBuQjnIdqiKfDSPIEasP3ClzZgynZOO6wwKZ6TQsAQt1FdeTM5kWo7cHmg3XczQc1vyEexG8U4h4lUpEeUxuVQi7rn3gvGz2uSiyga7ceRh3tRVDBZKP08fBw2ujUMUAcjwhcmqb5DhfGchdZv57YN9EDSWhrQH6pso+nDR4QWP4NRmBDGmcnsSGEOfSDUfQ/I8inXoRdh5cXVv7Mjoahs7tMi7nB12b6RML2ciJnHlBiiHmN5RFhEotpjoB4PVMafrmGNcruG3n8c3MrVZ9zNTtGdow9XRHlWywcIg8p+LMy+o0WeRf24WetcI56V30XOg2P80DN1zJRXvWdi9l6EhN6am8dfuNLyb7+aq4FTcvBqLjTJtjDOvSQwNhZ1x0uLaOsQQMNlBLYQDaIjS2MR/DTQN4S+NukSKCLxQ84nVNEGP69l+qvwR+d+Eejd2T0yb8emmYHtQatBNYrDZKhqOJi/gunppOs7ilj/pd1G/GPYDu9OiNut+zpik8j2B0du2h/5Q1W9RHTuPGgylnX3sTPN7uSjXS6hZBRgWzhpPeOrDbdsx5aO+9nKzgFPZOMVuWx6nl3LHyFRDFOYGudHsBXUGVTTRWeZZNzefUL6fSYmFy9Dv8k4xAiZPEqJW2LR1gTKm3EDwOmgHcmPG3BUSxG3ea2jfYnJ2FhEqcmNaUCey8PZQtlB+VBNK71D1/NwVzlpgTxVGIrJWQ88em3MueiZXsp84wBeZJvzMCbuse8ftYaMg2N+pfGzSUOvhkQQ7Lhg6QyWeGjLn/gc7TMX7RhYq5SPQzMQZFuo3hRjh9Q9zxTlVrtUK+zy/gbqouUHsv4u6MqJujqjxLHbPd0LEK7aXa2VSZRHQT4Mq2hrSivWM4n++0FJ/Syrx5ihocHUeoggw1/3qiXrEHqqrQEoZU+Q3mOjqUqzexHqYaO3b4iQK9zFMdHatOKnDnVEWkS1s4rpSMOa9A7ZfrI1MwyDUmJVkBlXrpv7PwiNJ0RkF+mvwlTbQB+CkiiYrhoIZh3an+E7Zec0ArQy7u3LzBW7s7N2Ne4RnyUJyEjWMXuE9G146xDrH+R9tMxOLa7EbQ9tQD8fCSRQPUoYJJRxEKo7JN8SxKtKbSz2oVmkXdoqTdh5LTTDU436PSLf77xAojQBk78zpo2oC+FzpCkdUAAyHHVD/EFbyqrhNLPT6zkyKlZSrW3sxDBrlIGp5NF6qNJCxc4U34hyJinti/xRqILnCfzStG4axMGgNyWfhgogpQOjOb1R4jiINZ0gbmSH1WdR3X+ithBo8VuaY5JiDT5u2b9TZ1eQKHXOr5LFHb9W7qSJ3UNuil3uL6xLD1TmEczEezpG800VP8RBN4uxRbAviadjYUY1UOGENvbeLz+X/YHx0zEZkIz37jMm/jXonKNOAe2rrqGBQUBpR5XdpU4ZA7sDUi3NXJ+oQ7NTLAuIWsTDsuis0rlRey8W0XFNs0Os594LO3P8I3tJ9XSiDqyYNZc6YqAuXG7AT0hn+UfFORG6EhpVMM1zGYBIDpllErlOtTJnLp010oo8Xe7mBrH8GU1a4CucRELPIdUPFHY4zqZV/SN6AMPVMhHQT9R6h+HCr7poqlcttuZQxpaT6bhJX83I/JX94NIS5nGeU94wBq5hspnqfo6TFpm6M23wH52+XNQ3ps4jcJe/+ufo/+sPOdfZw0bWpTYgPmT88+E7cAWYIxQVTmTqfZRFRissRO6vOdlxdI0AAq5wsIpukyUD1oU1jWmdSH3/+gVMXNzdm0HAr8GrBlAGu5u5hxFdJRT4INoedEDTtQm9GfM7/Uzl/rj68qxv7b0FdYEDUawXELnlMorOwO+FlTFdgB40tiGSY77WTmX0M7GG4C6RpeO+3FB1mi94CYDBt6vconmEBpvuG5PAUo2i/TJ3MN15Kd+LSbh71YDEDUaqqTuwUIXan+WICbyz3lBFP4rwQHj+geUgdDYf+sUViYBUdZdKYtwvVOF4Qdlxl+nrI5aWxiCa9ih6i/XF//OwwOYRNUb4TKbajYJpOO3WrRqy+4c0Zg4sqSMTk+ybGy3YLcLR5FUR8fFDSEOx51F4sOG7BrrfM5MHr4VcwRGr3xGxrqMp57kU81yob4r3pJnNF+q2qsBCcRn6F6IiXxcTH08d1Zf4VVZNgD4f046KjqB2cB0H0C5dXulATcN8F8wNVXbCt4tqzGKPU517kf1O18FKV52lYWDEDZyyGtmDcc8bH89RxNRnpZpEX19GGq2OECMBqnH/YC/KqCAo4CrhyxkTPiW6mUUXDxU+1aYcxtKsRYkOXH3J9Lk6BdhoOpxFYTpcf6Zhc2Ep0N0Q14vlGvrvzXkjtZHJ19gtwtlVkk2RqT36Wnw16bxrxmNlvO2lR7UjGMKEwIdM76nvqQV/HsEPy4VG3X1Q/mAljojtUgTR5ebrIicgOKH7wNPGKMYdzJZ7G4pvdMUzsLcTTYp7roc16IfwwYgzzNoa56pwSY9wuVEP/YfBYcGVpIDOm5jziyUa5uhy6TU3k1rpeBJ2Ic4e12JF8Hdb6ZerGmRPUok1iDHhxEJUqmBPbH5h2UZwGWMLjsDc/hPb+iqfzK2V48B4dkx9CHEPPDo97vM+fD3OFMobm/W2hZ1+R90RmnAxbqVOx2mbairozxb4xAtGnLX3iShnvybZcXfnYDk7wajGnsIE+XV1XO1XqgUp4jj35Ec4jTXXk56De6bo8ufPm/ijBlMFE5AG8a105m3TK7HKXVoi4fCckACqNTZu6eB7mhaRvXLExu1Nc1PH87jqFCOR2JP57c2ejZI1OAQLpVFki1CtSQKWzE5ITTD+EJ8i9F3jLVVfYYVDNp5A8j14j/7kGOfJNo4AUjKkbkuMROhpnGhB1lW0H2nrYDRWt1GiUXMGrcq65RzrcHqWoXaqAkYeS3w1RCZiDqsy8YoW/ne7aIv+fh7EDgXaehkHtKGKuVI15JXkmdWwb++cp6tkKB72qfqjS+gy6Q+9DqjyjTssiAi8hqslwv2i3NWo6xPqZnRk8QpxVFNqCBtiMyX2i2FisC//xHWQRGfjm8L0jPIrtjleuV7zH2IHHjDzYJTVo/5LtuapYD/4zUbzinXgtOa+7dwhURsAUGK9ONytYVSFgWhaR26DlU9Wmhn5k8Bxh4dmATmyh/wwRHChVYFdUNNGLZZjBKCKl3mSyPYF4UFCs6NAD/gIlD7Ed/Gc7b8WHn0/QZVwOwWBVmNhh97W2SCligJ7Yfwuvoy73QnIbRfdM5KrGZEyiaJHG3Bmvv90WD4wJnIeKdcj/WZToPapFUB5bjVwtqqvL5cve051xvvjajN03zsZ04ke5bth08TEhX6ct0rFMu7tfYAgYncZG5NXDdocypth/Ze5U1T9Xp9Bg2w4NExJ6P9YdRIv1IDyHvMtisv0dNu6CxLpw5oWPDzZVEG8U7ZBExQrmGf1NNh4AYJIgf/T9995rRLp0/8GAWcReOrFDO1GX15Quhu4owxxNdZZ9Rl1aqXdQ6FufTVHZusvkZ14dzs0icnOZcZz7WixW6IBzYezGZZow1tgY0ooI5TK295BoMKe8UBnPspiciQWZqTwLz6JcMEAsaSrrnjkESiHAzhiURqewbC9VmZAZ4jG47aFBCmPylTpCeCACL+w9bMUScCGk+mCgWEHPryqEeod4karxRuQOGFgKXVb+lRQrutg9mvyq4VylnyFJoq2YfEfZkJRIA0nOT+r78Z6lLIW3zFSCn/9sKCwwogzsHErnPHdn0WKhDrKoxijCt8fk7DJGsblLMf9nprNSTh+YrW5XxqLXdiHG5/nrvsLBKztbgpd+BA0NVbs2Fk5ExaC21aWEUXffXH0LGAF2wK4acPtNRpyqLmNA010OQsTH5Oyiw2NVHbo0ahdVQnkDojxMEHJ9CKGA8PVYOcrPbO6pmDEP+JhBjGcbtp4qVtBwDFSxYhOCJoq7Ena2pnoPUpr3rCI6meEwL3dJUX7V8/xgn4kWI/+dqjzjSqOMfZ7h8n7l1xGL+bqh9690vITkhLL9Zd48rOyCWFTjOR+DclvM9123zBmiXIfNPc7UaGToiFwHzyr0jHzlkiNQ1jRGodxjU7/L4xAohUA3Im/TrdqhQmtTWS5Dp04t74LMvG53+7CtQJTbMqtXiEV04grYqYExD7Piy+MueS3q+qikphU9ZKfGwVSxAuKVkDmz7Z985ydlHgCvB3Vv0xka3bVF5B7+TqGUYvMOxTw4lKfizLz9XTbiSbF83f+Z/0Q1NixacN1tYmfGzmhvraLMk4sEyQ7s/G1oo15JInKpKS9zL3TjOHaNoIO5EUMU5t1YIMIrDR9X8hXunUy0u2cOgUoIMDGfLo7SLcbJEB4XaGgI7276MSss6CsRJRRiPsq2lg0jDU0jneYUmzzux8QnNFXpb64iTO6nDjyPe/yjylTCFSug/Sd/8ML9Xcxf29wEbfI4D+NkoexDOHcrRRPc9UQE7nNoe1hBlyk/irzMHkunRn+wzp066Ed9LODkuRgrVfoEZYoyqvl0wROT+0xtUc1SGqF3vEEksftnfgTnxiAfH+y6cZjFnqnP7plDYBEVn82v1vsGoWplRCfW3LYCKtFnQaV+VDDCMBZeqsvWj8NskzgEhpHD7qI4TWCiTAy1BSr+PN32avKYAFEg6ukgIOL8O9qj80/IgiHyd3ihLQ08XxYRuGbi5TeV2bXyOkZxxQJAoIvTx67+GXW1Ca27PFih/9ph6qRKDzF5vm0duWIL2VGkaZnv3Mk20yLFts0y+ZgUQ8KdLWJCr1mmLpfXIVAKAZNleBbN2zbQlWyuabaJBuBjYQRKNVYiMzw/ZBHZXHYXgCay0Psx1LZ1zbFwDtuqMBRdnblGlP8z2HjZukPCqph5SFd+/AjBgN0j6pNCaGyVtb5yTxSCv7/YP05HqyqdhjWfZ077YTejyjeJNCZuUmMUkd1lz0vlPlA3QbnvPyjAPE1+Xuae2Y/dapI+qOqjO+nQe6HqmZjGnBzvVikBifnq+o9+MKN0Jf6mhWBdNLh6DmME8jMkYWKbn6QwIA9itY5VPvc3Jh7ujwq23FKf3KNz8lrULlVtL9jZQWyBs6o6xRPMIBhy+/sh/iuik/lOU374CKOR2zPREOCbWVh7MW8mum/qC5MekgdtGTsmZ9mDBc4mi2gf93N4B9HtomAvVZUealQPrc+I/LctZqa2EJ0XJgOmPKpn8Eiu8syvzkt3unfUQa+qfjHNqOo/ojNAsX333yGwSIr9I06C+H8AoqM6LNptoabB52LyFdv8cj7q1oVpH8nP+D1TYd4qh0bgz4e50jDf1CuE19IdlDOfgoiWKuON+03cbQz1wLHCO4aJ+R6S84O5QDRExa3zdVmJ9+AOCuFIxDrBFIfp+6jKmnf6ZJftrlWkj9k5pZ6hAAAgAElEQVQBbQVDKbvjEevh/9mZaUeOjsufm665aYbd+RIbO5fC3VIddOvoQjsGTd+eTWgQXd0u3SFgjQAzRIS7HtVk2RNX6taVVsxInYTCPcxy7/cqVrEIhqo2DJVpMd5Y5y6K05yLEWl8KYQef7U8kTCVfCXeuhU4MGEafwhaKJbdRbWteJph98bs1J4P8a1UxwHbFTzv4zivuQiTRtEV+z33H2JnW3qYwgFCwN+dRcWq+7b15meb5c9MUT/zin69bVssQu/mUb4z4w7f0i7Ptj8un0PAiACMWKUJa+7jh9GtyhWLscIKD9mu5i74k6tQfK4IxJG6nctcpkWLFlF14ojcO8rwDSwQ3a1QEeehTJgocJsG721Fygk4H0JIBU35Hj27Cr2305hUoX9sBue2oddkgSvh4Vp8tz2cb03TmZP4jsT/zEanj3ahLwdsHA8zNXqEpLgQ70Gsf5j/bFezseoZFl3QhORBvnO2oQWG652IPMA999uUsc0DeqRzz37c48Uvsq3L5XMIDI0A5NlZRDrCB98/ICPvv4ZupKACamQak28UZCt8DOUKWw8KzI3RhlHsojih0Hxk/vFwbgQfdx/T4WzrmghiJOqrLo+gK72rfgakawsRgFFHVXVq3r9xXQvEosDgOtMEz+yN7sXOWd7RDtsHhF+BD8hh6sFCUGe/p6uXjd/NwyqKyPVLBt/94yv0rpHzu/sJI0A1fSLvFbANEX/4wMXw6/J/nBHw0OuqK2IhIUS5/uddDt9yhh/iKSHgne63Fdbw+h9RujtSTGoPlf14yrwyiDigXPDAcf4flymnygtP7bZnEszOZssoXclwGqmRbkQQGr7/g5+/v0PlYoaXV11xhmaoT91OTG7PYn9V3ZOair6601i4EXW/KI7+e+U2qd+5iKzF2Z6tuyy5jqL7LPLTKobRYr04UzLFlhLz8v9gtNgZwz0ZGDhPH+aKkDNZRHT2kQfFUDbDtOPK1oQABgFi6ZSeCOYnHsMHpZ2spq8MItOe8NSH1wTrXDVMk/AmuJaZSxziD9y0QEZvWwXOfGDcO8pdFGhhIkxE7lW+2yoKG9Ju7EomBjuV2WZdAtFiHqnYOx3nXnX4RrTFdVT5Cr7FfaKYDQseZgzdHuZc09QXiG6ziGy1cWRsqgd2b1WMo6n0A4uOiFi5VjLRwBZsWPQqxyiUcUzl3bMJIJDH/dG+MN2LPCTTq3xARa+MRSG+pC6xC4wty8QLosbHcBE05NlXUT+pdqLmw0dYhrL9ZyKvOVdIWWTn8byIzml/jp18FpEBjUZhUt1A1edj8nwElYTywigXHxDfdiLvg8PilmsqztselqkP52+5oox/dJlycl5pwSPNYf72Mgs/uW53PyIEWFAx6WUdtgzrIGT5dUHNsN1Rp31V7uDzTx9ZhkYWSuCmusQkctsQIQoTqDyWdlfxyCG5QTpge+4m07YQ78F0DHgC36twyA/3T6PsHxghduxV3p9MF4xeQbOcbnvfifxXYXFWNZ4bc0orj03hfjgPG7b9cPkqIJBF5KKCD0J4kYcY8woH+nM/gpdVgLGvCFUdjsn3oWXW92DIG8S3sfU0zptiuygYxIY8ra4rY8K6sBE9W8e8Mj2I4TM/Jr3L5eeH8n2udk7PZrXfHdT7R40B88fYrqMdLI6oVl5Jv45i28zJ7VVQpRfTi/4XjVHEthrV4q2INvfcAoH8oNX7RzlEO+wQTOHYEU0WW3fdD94S+sKx87Ds7IoDSYgYdT+66grJkWAYqh/k7lTjC1pfip9O9GFx+H5zFYNEEeo8zIB3uY4GMW+Z/1lEdhapaqvqy53fkpvr/BCBP7yxzzMSmdn7V1RpD2VEVXNb7T9VvxdqWpGoj072K7xnj7J/8PABDb662shC7xqVD0zb+nGGxIxrT7MtA4UiMcilYqxuszHbsG3P5XMI1IIAc/GvXaHisLrsSo0TBsZKgxDGS5bwtLqukMXjQy1bHz23iMhPy2pS6drJbVu8axQfPMe0sjgGk5hYb50iUl1/pjE9i/3XiTgM/If4bQSe9oEFO/fZWGWBocOSup2KyRt1z23SaQDCiGQ2Sjd5jDTygwHc5s9KD0Jz0qZdl8chMFYEmMX99wyDF0aeX8Pusgxh2DHl4bC9d5QpZ5s3g8Hj8Y97hG1+MR9CJWQRuWXYSYdpJiLeE2dG8vVAFvovFtvW/YdxqbyDRlBIoe47xeeHmwNPyc2TjDPuN9UhkpbfTzfyPgk3YXL6MPfQKC3jFUPXFpOAdE3x2ah9Xky+JYyjAew6EVmra8OlOwQmjsCOYx//OOr8VD/RwnPBV8pM6EyUdm1ZxmYLRhaRvVXV4Rlj2YQQA7btyfnYwfk604cPzUW5nOp+R0iWGWxSBiaUuTZD70Oq+g7FNIp3RK6e67tyrNq5v7LFh0dnrtuWjHkJudqWDlM+GNvCIbJKmgAvKgXq+lh8frvqd2Siyz1zCNSKAM7ICtR64a/vPBsj05zh+dtVIdnrIhoTehmGKbeLw3WE7KhSB3OfZNo55VitWvQwuV3VvcXuQMekblXVd6im4YwEBtomJgUNubqMzdki68t148l87O2uMvZkWpgE5EooTojPcuZKHQDoxk4P51jj8JYu0uX+OwQqI8C8Seusy/lAvxTnLrpGYOeTRWQ9D8SnyzdsOsKElLUpEttkH/bGLPRWiulF/5k36ytNkySMRsuIH1l8ofsL6uT48+s+iCqL6D3Unm9fseQphbv9iOwApsP0nY3jm0bhAw90gdGaRHNlaGdBDrdCBR3lqLg48m4oGE93HU4mC2XwdHmnGAFoK2LyLxjcP9B5EocrGEQbtdlpVYUhP98iB6qW5+VoX0vsonauXPxks7YePYvaUMVBKVbTKg1MXVoZBsj7e6hcs9B/RhaRAYe40ph9aJiotLCtwg5jVJhhEYcFYV31s/Avu+GppWiXCZuuuphjXfS7ehwC1ggUxI7iK/itsqosi1m0FdFRrRurkJHZx+yrULSvCNtF3WUTeJAZ4RZNijfWfV7RR7C7mUOA7Tq1dmecWXVC71NVmHkW+efCbdRcgzX/gVeKOqUMdMcXE+OZKMPkftFNVM3dctU5BMaDAGNSRTupfVlITuKydGj71eEOpqiHTMnhoaJ8Ns+ZX7tbdcoc7HBe65l8biKMvBucixgbxOvLg12O2Tv/nHbljTBStW2ZLbS2mUTZtnXp8uVxmPzzdc/LpOe+CAdif/GFpHjddCj4aSyDjct7CCPAxHV7+SSsv3qXM2est6m0ieqGiKrORuSBOuqFBhO8xGPCkOtj3tdNTjXzjz/0rhmVk1KZJnffjwAUIhAbTD8255jUQzAat9FYy2LyboRn72+p3jtmX3XnsLVCEzWPYjDXT5Ehif83OEPcYdF25acOgSzyj4bXBosJoAexSBXvDmU7zbTodpUtp8tPg/5F5Da+i2KGjR/JIiJHtRU/ePofYdrHwZR1tLv0RYty7T5yo90YJTeaFCiY+HjTzhXek0aJLduZ760ap4sZ6iKMz8CYHEzzr6hyLjrK/ru6HQK1IcBix8CHncXHQO7Bzqtu10ZiZ/Lw9aQrpg3zn05KMbkdB8w4WKeOQS36ijhho+znMH063MqyYJyWEzaUgPxzu8c93pdx6sZ+AK/zcvoo7hH+pWzcJWjeIR5dFpF9Nt9jNyIfr3IGN4r+ujodAiNDgPqbszuEZTsL7wYoFoxiAmeT0Y66OguxDzwG2OyY2KTQHXXYjrr6djjVA0UBFs3YFKZDXGTtgxIFYj1xnKh2XeS/nN+P8grjd1tFjO4K/9HdyEvycBtWC0UrN0ij7J+r2yGwCJpoOlVknn5/5D1G5WRWTINMXHSlI//HLqqzgjwfK7JOaLd6Y5P5LbDPqFP0B3EFbGGGff3UyW4e0sF2d4jJ7bpR+X0btj+ufI4AtEgtzAFERrUfwR9ZKIrN+KbGgSVVRIrJmaa2EB2YurwKyYM2OyaW51qR6Zrqd88mjEBucIeDRPKxfGvsnaMKyz6XFpKv6kOzz4Vt/19DeHYeur0oTDvCt2/Th2lHCHfSKTEoxQ9uGv9nCB0BxjfskGDew7dWqQc7OhhfwhdaFpE9JfDdh6B1o7TvqtIfV0aNAPOkcHqJXTH/ZjYiNAw049Q115faXeEdA3+Vco1Mi/D1sCcsMT5B/54s8t/rxqiM6BTf44WVfMl8oLqrxTlMRWzvwPkNtOS4YkKZIcS8OWyxLUPtneLFL2Ky+y0VaL66jJqyLV0u3+gRYLspkydv3Xd+IIv8KyAyhKbgSETV4RGPRVwzfAPYKdGo04idVmwor6L5QrdrGv14qr2FQqvq0U3CqkHk0gbx7maR1+pE3jvgRNPG0JWtMO/RDRaINHHYnUVkdRaR9hA70a3wx8btvHTtufTpRoAqwYTem3OJhdX5jeo77WCcwu6vE5PngxnYqKzLyECiA9dEue9L7zXMSXBWYdHEabwDOzG5HXe/QBCAQ9AhXj4fBO46yFhGh0lM7oOX5SwiX84icmo3JP8Ot0RUyw6BIaFpF5H7oS3IwoKf1qWiWTjHNDsTtRwLu8DcICZaIMPckWmBQB67i5xkaTdkM76hSQdR/SU4Isgi8jm6Sw+9D3VjsiYLvY/CETDOt5CHBRksI1Y20XAbvgknzrN48dOcpRN5/4jQDJYTk2lATOuzh8znWP52eHhmHxI+Jt0PYhB+fqa6ItTBJcZfTNZ1wVgQQG6cDK2+trIs9k/BDm2ax7SjbTgEci1QKvrHDnlav2s1XTH5PpQ53K5+uDEwVaWxHYe/tdw5qH+sLjQ7TY/Jy0zh2fEMhn6ylpt8v3MleYKoJaf6D9VRrmmnui7kFXx3hffsLPLPrxTnaOyThnc3zhqqGk1O1WB3xFgjQF1mhV6UxeQ7U86odlOV9Mh7gXXnXEaHgEOgGAGq0BCSN2QRMUbtncAEsSuL/C9mofdCtxotfo+Heg54qqcOXGNy+wTGomq3tDejdodeXKeJxqH+Hl3/HAKVEYDlfhb7q7KIIJ6SlSV8rZMFRI95GPUQ7pIqd8QVPKQRoMwq9t/FFlXjHKc3MVOYGNKVQxpk1zmHwDQjgFUh/PzRw+SIXFUUzbcao/Luph7WQ+/tEMGOQlV4mjF2tA2PABYyO1d4f9eNyNvgdzGLyMaKauDyLmlTFpKLoQTUicnLnCf84d+Vq8EhMDIEIGbLzwoXvwiq3VQDioo4/Cuo9waq3EE19DqdiDzAVIbv6Ebk+vwMwf8iNO/gtQLnhG4FOrJXddhXnJ9dHUmounnkvwpSgXyh5Z8Bl1lzRv8x+QTs/ah39Ji8MQu9CAslJ7I77IeQA8Ah4BBwCDgEHAIOAYeAQ8Ah4BBwCDgEHAIOAYeAQ8Ah4BBwCDgEHAIOAYeAQ8Ah4BBwCDgEHAIOAYeAQ8Ah4BBwCDgEHAIOAYeAQ8Ah4BBwCDgEHAIOAYeAQ8Ah4BBwCDgEHAIOAYeAQ8Ah4BBwCDgEHAIOAYeAQ8Ah4BBwCDgEHAIOAYeAQ8Ah4BBwCDgEHAIOAYeAQ8Ah4BBwCDgEHAIOAYeAQ8Ah4BBwCIwLgZmk9cQgSc8r/DXb/zQumtBOI0k/YKKp0Uw/NU566m5rJklPV/Vv+arLfqPutmzrC2bTx6loCprpqqI6lq5e9zRl2dn264rKvmT2okcqyybtU4vKHqrPu5E/Ox/ewj+v6v9OSD6LYIGIqos6s8h7DQ2nsXLJEaOMuNyNlyypSrOqXBZ6n89icmYWkpOy0Fu5fcWSp4yS/kN1XC24fjWS1t8FSdor/rWvGlfnlq1tPSZI0gMFNN07LnpG0U6QpHeq+rd8Vft3R9GeTZ1Bc91fqGgKkvSyovKNNe0ZVdnGbPvzRWWXNdt/qCo7k6Q3F5U1PZ9J0hebnk/zsyz0rqkWzJLIAQRN97uymHyjG/uvrDuWUzde/Jwx0N+lzCwiL3VBO6d5NA9Bmz2DSg9ihT1EU9ZFg2b7raoJS0pzDMoaUbuMhwqDetnJF5MgSdtB0tpi1/PpyzUmBiUyLwTMXLt9+ZG/XQcaY2JQc/R3Iu+GTuS9oA7aXR1ThEAJBtWbSVr/Pg7SgyS9WmJGqh2eY1A1v4yFzqCOWXXhr0EcGSTpg/n4cQyq9C4mJvftCMmyYYfWuBkU6+dBRPp1u6lh394UlS/DoIIk/d6oSV82e9GRQZIedAxq1EgP1r+QGdTM6tYxQZLe3T9uHIMqzaAiJiIMvQ/1Fi36hcFRYpcyIQZFd1SdiHxmGNrteuhyjQWBkgyqBwYySsIas63/7J9ktOdjbgdV84tYyAxKvahxDKoygwKjisnZvaOO+qUqw2ySDIr2OfTeXIVuV2bKECjLoEYt5guS9AbHoCYzSByDmgzuqla1Z1Ch9/lO+KePtP6tXHLEzpWLn5xF3rOy0HthJ/ROzCLysSwmt9sxL+90FX1FaSYGhWe29O+On/CHnZAcCa29brTkr6HBl8X+KVlEbjHSH5IHoUlYRKd7PuUIGBgU5Pj7FcxiZGI+pvKuOm9SpbkdVM1ja/mq834ZO2T5t3TtxX9U1NQwWnzLzzvvF+U2cT+zev2fFLXLnx8uO6hu5H2S93nY647YO6oTkW8bJ/qI9LohOb5sWyYGBYZZtj45P0R43chvZBG5V0d/NyRflcu5+wWGgIFBbQuS9H8UDGpk2nwzSfu9cnuNJP2pnMbuHYOaorE2DIOqoxuOQVVDkU70sf+WLCJ7dRN9JyIPdF7uLS7TwqgZFKcFu6Qs8rdraD+wIzzisTyvuy5ABEwMaiZJ/03FHEYl5guS9McD7c22PjiQltttOQY1RePNMah6X4ZOxFfnDkqkuBuRl5qYVBaRC8X8Rf/HxaBARxb7x2kYVK8Tee8ootU9n2IETAzqmA9e+OggSfcpGETtYr5gdv1TFe1sn2mmL1SkQ+TnGNQUjSvHoOp9GeNmUKA+i7xYN9EjvROS59n2cpwMCmrlWeTdraH9IluaXb4pRMDEoEBukKTrVQwCZwR1dmdmNn2/3M5M0v7k0mb77+V0du8YVJ0vYMi6HIMaEkCp+CQYFEiAirZmou9lkZ9KZGpvx8mgQEQWeacr6Y7J7Voi3YPpR6CIQTWarVeoGESjmf5Hbb3r9X5h0IYl7TVmW/8wCQZ19GmtX4FiwPL3r/uDUfnGq+rqaPmaS3572ep1j8XuFkoNtb2DIStyDGpIAKXik2JQW1+x5Dc7EfmpcrKPyMHuCv/xEqnK2/EzKP+1apr97UoCXeLCQKCIQTFHng8pmNTVdfVwZvX65yjqvwfaXaNmUPB9NzPbenkjST8eNNs3BUm6U0HLtqCZfmcmSWcbSfrsRb1eZQNGjpktgwJDCmbbr2M72e0Sbfvgrw6Oc5cm6dKjVl1WyWZljqZVX/+dxmy6XP4Fs+lRPI/uOgyDOn7VZY+Q28zv2y9StffSNZf8qZxfrSSRduR8uF/WbL+E1zuTrHumKo9Nn3kdNleIsFXtwO+kqvykGBRoyWLyRvVkT3pZSN6noldOGzuDgvo5NzLuv26WaXP3CwiBIgaFrszMphdJEyPOgA4ec/L6I+ro6kySfkSuH2moe1QMCn4FWbu75LYt7n88M9t+5TAMoYhBoe6Z2dbbgyTNLOjhavibg2b7jdgBVnkvC8UOaqbZDktgwrERrq2NHB+8R01dXbhO4vmGvQaz6S2KdvbBUa6q7kkyqN7yx/xqFpP7NBP+jSp65bSxM6jYf52G3trPy+W+uvsRImDFoJqt4xQfV68OMR92SUGS3iPXv2x161nodt0MirV3UpCke+U2K9xfv3S29ZdVXo+JQS1tXvp/ZpL08gr08El4w7Jm+6/K0nU4MqijV7V+K0jS3UqsZ9MVZTFU5ccuTVl/kq5T5UfaJBkU2oe2oGbC73VWLilcmI6bQXVC71Maek/TYezSFwACNgwKYqaZJN2j+MiGFvNpGNCdXIymeY6JuLSSxEtXX/jHjWb724p+8Im99BW4NJL0n8u+ah2DOmZN+0nBbOvWGmjc3UjWv7QMXYcjgwI+QZJ+QYU3JAdl8NPlZbG/BseWIcbaxBlU7AeaCR/+7kJdX3n6OBlU72jvV3Q7vp0rvL/jNLnrAkTAhkGhW0EzPV/xEQ8t5gua6ScG6m2mCYeyLgbFgvEpYzANtJ+k9wZJ60dgIhrGLE82BxtJ+gZOs81Vx6A0oiDeHs7HNgRJev3PbdR+pqCb56NXyjzXpP/Xhh7kOVwZFJRxNFjubXxg/e/b4qfKB0WWIElh9N73boIk3Y6zN1UZpE2aQUFZIovIAQ2TouJ3He1IHyeDyiLvv1R0dmPyQ+c01vSWFsAzawY1m65QfGRDiflO+MS1D1d9vEub6VM4dHUwqKVrL/jNgokfk8e3Zpqt46AUwtumV2gYrm4/g0X4NZ1XHfy5koV11GEtgxqcyHozSfoVHNqvWrXqYSJtLO7RyUGSmui6Z3nS+j2xnO7/QmFQ0K6cmW0/T/xplCS2i3n4/4bEtIFrkKR3qcZ30Gy9XoeXTXqQtAJlvUn7TFP5STMo0KazLerE5Fsm2vFsXAwKbpj0jNQ/uohO93zKEbBlUFC31sjqK4v5gmbraPnjbSRp3yFsHQwqSFpfktuZu2+mW6FdZfOa4BsuSFoXzpUdZCY7be3D7BhUawsMlYtoQ5tB0r5KT1frS0V14PlCYVCqvqgZlL03cxZHSt7l9ICrqj3btCBJv6Z6LziXMtUxFQwqJBerdiZZRO400Y5no2ZQcB6bRd45Gvp6Weh9tIhG93wBIGDLoNCVRpL+P8XHVlnMh3DgivpOEmEblkH9XD38uYo2+ET0k8bai54gtlf0H6ttGBDr62xdXFQHnhczqNYWOM+1qQt52C7xCg1dB5euXve0oroOZwYFjVQ1k0t72KkWYad6DhOG+eCJ8yI+m1D2U8GgYnKmhgHs7S1f9IuqPvM0E4Pqxv5bOqG33OaXhV7UCckJWei9OYvIyXAAm0XkNg1dNB4UwsBXDRPC6XfXKUGgFIOaTZerJ8D228p2B/J3lQr10tm2J9Y1NINK0u+qaU4fKMMARJqgwKFbGdO2mulz+/IrbgoY1D6IFRXFjEmN5NJHQXlE09/PGQsf5jsoYNNI0m8qsWumq4qwUz0PktaJqvoaSVroH24aGFQ38hIdI9i53DOKjU0MSldnDekHu5E/65iTajQu0LQyDIqG1FYbsl5Ttvszs2lD8fEOiAuHYVDLZtOnK9pgu6fWm8rSLOZnfgoH1OPRno32l5FBCUoiYps2/w02Qg9gRW+q43DeQQEXnEFqxsttXKvUhJ/8LFAvjvZDm1TOK99PA4PqROQ/dUyjyEv4BBjUtd0VvrVCkIy3u59SBMowKHSBHtgPnr2UFvMFSXquPBk0kvQtMkzDMKjGbHqK3Aa73wR7KLmtsveNZvu1mvoP4CDfVJ+BQWUv+MD6XzeVNT7Ld3d3KOkqOPA/3BkUcFft6oElt8szYi88ZAosBxXvoS1k0/6dBgZl8iixcyUxisbHzaDgnqkTkbVZvLhPAqMF2D1YGAiUZVAGrSRrMZ9G4eKAamU5DIMKkvR2xQTRC2bT99TxdpiRZ1fVBnwYmtrQMaiZZutjpnI2z3QH/o1m+t+m8oc7gwI2QZJ+WvU+Yctkwk5+FjRb71PVE1ga/04Fg4p0/u1ID0oKcp/F+3EzKGGntzeL/DMQsVekx/1foAiUZVC6s6MgSa3FfPhIFR+vUnW1KoOCNwZFG1S8V/XQW/WKZ5L0bE07xjMfHYPC+1C1UyZNz2jMWm36cullRe0P44sP7n5UGNooE3C61AoO5v7ysuJ1WdL6axUtQZLeB7MIMa/2f76LVamtd5afct6vassJD6aBQUGZQZj4qQICvy8Kpz5BBsXpvHPHsV4lLy/Ca3B/J41AWQYFenWW97Yq1o0kvUCeBBAcUYVFVQY1k6Qvlttg9/dXOU9Q0UaxaLZer2nnBl0ZWi5JVUbDB+rwns6MQ1UOfnuyEopIo2NQixYxBZjBwJlJ2rP1zLF0zbq/VY6JZvoJEW/T/2lgUJ3YfxdnSPJ1qDOo2F8FzTzbH2WUMXk3RHidkHyWhanvyjQp7rMdIfkLE87u2ZQjUIVB4UNVfoBJsTZfsOrrv6NQvd0LpQMVVFUZFPMAztXJxeslqnaqphn8rO021anZQW0wlSnzLEjaP1C9IzBuXT2OQeXIBLPpOzXYfUWHnZiuFROuXv8cMZ/p/zQwqCz2T1FM+nSHcn/k/ZaJftMOaufKxU82lbV5Bk29zsol/wCV8iwiB3V0ZhG5p7vCV84tNu24PBNGoAqDYit0OfQDmEChmG8maf/LwMc/227pYKjMoJLW2oF26Co4/biurSrpcIWjagdpA14phAZUDGomSa0DwglVKf8Gs+k3lHQ101hZwKmZz8GCEBhBku5X4Lcb9mZzGRV/IMILkrSjKPvjMjv36WBQ5Cuaid+4+AIso2ZQIvSdyH9uFpFtGloRaPGLYn73fwEhUIVBoXuNpPVZxUfYC05uLTZ1Xxmh1zBpVmVQemPa1loTfWWfMWYt7tDm/iNuka4+FYMKkvY5uvxl07VnY832G3V1uR3UPDJBkrZV47vIMXCjmR6rKjeTtN81X3vxv6lgUBH5rmbSv7WoB+NkUKAF501ZRHZp6O3tXOE9qYhm93wKEajKoOCCR/khzrberusmfMIFSbpPKvcAtOF0ZaoyKN05WWO29Z+6tqqmB0n6gNQnyqRelqzXRh9VMqgSZxRFtAZJ+0wVTSYNRseg5lFFEEslfklqFBEHSbpOUe6AabEy3+r8v0kzKDhZzSKiO+e5YJ5S9b9xMyhQwbxNcCUJ6eqfoabUpU41AlUZFHX02ky3Kj7Ga3UdVlnWw32SLj/SKzOo2fSLCtqGcm6ro1Pjo9C4m1QxqDpUzDmNQZKepuo/giDyPPLVMQ9/2OYAAAyoSURBVKh5RJi2qkqMvX/p2ov/aD7n/D+mOSovwLBYMTK1+Rrm/02aQWXhkUS3G4GHiXlK1f8mwaB6y5/4y1lEtmroLvQfqO6JS50oAlUZFIhWhspIUq2mmCoWUyNJl5kAqMygNBN0kKQnm9or+4x5ZJ8T64lMwWSsq2JQQZIaVdPL0Kbxc9hrJK1X6epxDKofGe0utNl+a3/O/G6mmb5ZfP9z/w0ibFU9SJs0g+qE3omaib7XXeEdo6Obp0+CQaFtaPnp6N4dP0EZvZjT7K5TiMCQDErpiFW1SocRbpCkB+Y+2twbRWaKiQO4qjKomaT9XqktzkRqjbDJXB7xuvuuJtGlhkGdV9cQCZL211X9N3ludwyqH32Dq6zv9+fM74Ik/b4C86xK6PhJM6gsJt/QTPT7ty8/8rdV/RfTJsWgspC8QUM3lCWeLtLo/i8ABIZhUHn49NYWxUc5IOYLmu03yvmwyi+CqCqDCpLWm+T28vv6FBFA+8yadX+mbifdZdLaUjEo7DCL8LB9rvED10NMJF0djkENIsMCV/YtPPC+5fNFeMXXjINPD9ZanDJJBrVz5eLfzyKyVzPRX1pM/Xi1+ER64P1cQ3evE3kvEPO6/wsAgWEYFLoXNNMzFB/mQUSwFbs/k6SXD+RrtgoDilVmUGpvFZhofizSNex/vYPR1o9MdasYVJCkm0xlbJ+xAHyIvjswsZq0LB2DGkQ4aLbfqsKxkbT+S8wN5RNVvpmk/TdiPtv/k2RQnch/p26SzyJPa6Yg9m1iO6jYf52O9h3h4r8XaXT/FwACwzIondW86PhVKd5rplttXMdUZVCN5vonqyYMiBlNoreyr2wmST+ibKeZnm+qS8OgDhTZ2Zjq5M+WnpwuUdKUpF3jrq657i805Q4bV0ccQ35lig97Fbj0GVUj0KYiz+0mvHkbquukGNR9y5/4GwZFg849J/zRr6noldMmxaCow9iISBp8+f2u6PF/JtPp7qccgWEZFFutb5Y/TuyYeNcbSfqGgeeWTlGrMqijVl32S0GSKh25ziStf+S0DXXNfa4p3eKozuHEtjQMqres2X6JmK/KfxXewL/IENjtoNRoq1xzAU8sglACccXk8U2fS7ssde3q1EkxKJP3iG7kfVJN7WDqpBhUFpHrNDuo/b3jH/eIQUpdylQjMCyDQueC2daHFR/oATgBpc+b6Xfk59h52QBTlUGxds+X22X3ViEPiugzYNfDAbupvI5BQWRqKmfzLEjS61X9Fne1qnoWOIOSFXB6QVLeWawSl6QVKPFkNnUa10gHZDG3qm5d2iQYVCckz8sickA3wReF2BD7MgkGtSP2/1xDO3ZUV4n0uf8LBAHDJLvNtgszq9c/R/UBw+4JNiMK7b2fYOdlU/9QDCppr1TTlR7gq18bGnR5gmaqZICNJP1pUbwpLYNK0l1FgQV19CA9mE2P0vS5MFDeAmdQqjO37SasbJ8xU4L7ZFy5lCBI0m/JzxCd17Z+Vb5xMyg2ue8wTPBnqejUpY2bQSEEfRaT7+joh+NbHa0ufYoRqINBQc4eJK2N8kcaJOmlgdrb94dsIRmGQTG/aCpjSygPXGtzBqaj0+BpALZGfQfoqjoMDArlP6sqU5RGjUtn01sU76EHMVVR+QXOoAZC3c8k6Z6iPts+1wS/3L9s9brHBkk64Dm+yCVSUbvjZFCd2PunLCKZbnLHmVRRiHe5P+NkUL1Vix6Whd5HDfTvdTZQ8htaIPe1MKhczPdBxcQIq/oBcdPS1eueZgvPMAwKbcC1kYKuXLsN4rRe7xdsaeH5Gmvafx4k6TZNvV0crPO8uquJQdF6m+nxurLKdCwSmu3PaGjqweu6spyQuMAZlCr+Us9kLC10vfDv0mb6FA22X1ak7xw2bMqoGRR2HDtCsiyLyP8aJnaIxvZnMSl9LjouBtVd4T8+i8k6Ux+6MbEOc1I4EFyG8SJQF4MyGDX2qzrPtgodTYoIDMugWPRe5eTFJpbPHX1a61fENk3/oTYcJKluV9aDvZepPH9WxKCw+kf0Yp7fdGUiKGUkWNbHL5jK82cLmUFptOhqi54MjIIkvU7BjFRh3Yf2CFIXg9qy8im/vuv4x/0BQqF3Y/9vOpH/qk7sf7obkZ+YJvW5ZzGxGs98DPHrqBgUbLSoY1hqkOu1DGdmXJPvfvSf0+WuCwyBuhhULuZL71B8wP0Mqtl6XxmIhmVQaIvVoQqfwGm7bWmSLjWdi2ElDl95ivM0XgeulxSdPfG+FzEohuNBqLHrYmWhrjwelTr2E6tjk6k8pwfXhcyggL1u7MHfY2O2/erGbCtiBtwnif22/W+IMSaOATDFo2zr1OXTMagsJA9mkb/d7qdVeOCTt/ka+6fo6CtKNzGoXJxo2wfk03spn2OkatXyg53QW15Eq3s+xQjUxqDoZJnO6iYJng6V3DJw1MGg0F6j2X4tp0F/bW1pNNNPQUUcBrgzs+lr4LuPHYKbGBx2TjeZ4j/JfVYyqNnWrRoGCG/pX2s00/8IqOJH68SgmSaNJP2hvi/USHdnGXHqwmZQ7VMLsOhjIsvXXFLorkd+Z43k0kcpgm321Rsk6V1VxMZyW1oGpZ6IzYymfJl9cBkk01TmvoBB1U2vsr5O6GkdI5fpi8s7QQTqZFBLZ1t/WTBJXF+2q3UxKLTLFDYU6sgKjwsqLwyatJnZ9EqEEinTNzWDSr9oPDPTtK/BvFvWi8FCZlCGcSwzEHq/bHXrWWXeF88bJOl5GrxpvfAByfMOc50Yg4rJ7VA3H4Z2lJ0wg9rVjbxXDNsHV34KEDB82NZq5mI34EpI9wE3kvQdYl6b/3UyKLQXNFtHB+owIcqJTNcXlg5mdxq0BW36IubRMSjkmZlN31/QbhGtd8JHoNiezf+FzKDQv6DZ+qotbo1mq9IENpOkLza0cdDkSsrmHfA8E2BQm+HBvHfCUx/OaRjmOiEGBRuuL3VWLjliGNpd2SlCYAQMCiIx1QQ64J/PBoa6GRTaxJlMI0k/rlIP1tCu6s//NJL02TZ9UOUxMSjkxwQaJGlWgh7QuA8hIqq6S1roDAoLBW2kZ3lMzrY+qHovRWm5g+R0wHMK3lOdzn7HwaByRQnvdPiog1ZfUd/LPB8zg7oawQp3H7tEGaerDN0u75QhwNRnccAs/75WhVTm1Vmu6xKEYK9UX67SPVBfUaBDm7aWrW09hjn5vMGSEWwOktZHi7xE2LQd5AEV+/ol7zCpkfNsC+r7OpV2zji3zSTp6fDBZ9O2Lg9W/4pxcElgMZkzY+2+/uR1td+ma4+nwzBZ1W5VezAovMCtky7ScZCkmxtJq8nbL3ttJOkHVOOl6q5M1X4W+WdkEbmkhl+7G/vndULvU1lIPpxF5PWdyH8utOFU7daVtjPynlgD7fP9p+E/vHOgMt6JyPu7ofev2UryzPsjTxuNu66+uHocAhNHALuqPIx960QY2jaa7TU4T4B7oGC2/TIquqlgM1VHx7Bqx25tJkn/jdLUbK8JkvSkoJkev6zZ/iuT9mEd7S/kOoJVX/8dhMYIZtc/dels26vDUXCQtM9RMKhdVXeuCxlfR7tDwCHgEHAITAkC0P5T7sya7c9MCYmODIeAQ8Ah4BA4HBHALlaxe4IrqcrnkYcjjq7PDgGHgEPAIVAzAjApkBnUTJLeXHMzrjqHgEPAIeAQcAjYI6DTcpxppm+2r8XldAg4BBwCDgGHQM0IQHNU3j0FSboLHiZqbspV5xBwCDgEHAIOATsEDK6yTrOrweVyCDgEHAIOAYdABQRgi9VI1vlyUdj1wT+jYueUG0bPpo+Ty7h7h4BDwCHgEHAI1IbAMWvaT2JMqBMk6YYgSWG8PRAEsY9ROdXy2vB3FTkEHAIOAYeABgEY2fYxH9k10uD9tsYH1o/UG4OGVJfsEHAIOAQcAocbAsZAlP0M6uDM6tYxhxs+rr8OAYeAQ8AhMCEEgiS93mIXdRBxwiZEomvWIeAQcAg4BA5HBBpJekEBg7oHjmgPR2xcnx0CDgGHgENgggggiCHie7GdFDzI7/25a6OfBUnaDpLWictXXfYbEyTPNe0QcAg4BBwCDgGHgEPAIeAQcAg4BBwCDgGHgEPAIeAQcAg4BBwCDgGHgEPAIeAQcAg4BBwCDgGHgEPAIeAQcAg4BBwCDgGHgEPAIeAQcAg4BBwCDgGHgEPAIeAQcAg4BBwCDgGHgEPAIeAQcAg4BBwCDgGHgEPAIeAQcAg4BBwCDgGHgEPAIeAQcAg4BBwCDgGHgEPAIeAQcAg4BBwCDgGHgEPAIeAQcAg4BBwCDgGHgEPAIeAQcAg4BBYqAv8fgKWyjp/NpOEAAAAASUVORK5CYII=;" vertex="1" parent="1">
                    <mxGeometry x="939.45" y="310" width="61.11" height="65" as="geometry"/>
                </mxCell>
            </root>
        </mxGraphModel>
    </diagram>
</mxfile>